<svg width="96" height="77" viewBox="0 0 96 77" fill="none" xmlns="http://www.w3.org/2000/svg">
<path fill-rule="evenodd" clip-rule="evenodd" d="M82.5379 60.9972C82.5362 61.9047 82.4024 62.5931 83.2515 62.8429C84.1404 63.1042 84.3082 62.4191 84.6039 61.8562C84.7501 61.5783 84.8756 61.1865 85.3089 61.2387C85.7574 61.2921 85.9049 61.628 85.9691 62.0335C86.0085 62.2816 85.9749 62.6113 86.2897 62.6975C86.6554 62.7973 86.8004 62.4709 86.9851 62.2406C88.5471 60.2951 89.7843 58.1491 90.7937 55.8785C91.4179 54.4735 91.9746 53.0251 92.1419 51.4764C92.3735 49.3308 90.7482 48.1391 88.7662 48.9899C87.5948 49.4927 86.6529 50.31 85.9554 51.3533C83.9495 54.3538 83.0105 57.7358 82.5379 60.9972ZM79.1389 61.8997C79.457 56.3312 80.9067 51.1032 83.8861 46.3432C84.6751 45.0827 85.791 44.1288 86.9909 43.2785C87.7315 42.7533 88.5864 43.0266 89.3991 42.9819C89.6485 42.9682 90.3762 43.6807 90.2122 42.61C90.2022 42.5433 90.6239 42.6021 90.8244 42.6936C92.154 43.3025 93.2487 44.1454 93.9156 45.5102C95.8184 49.4049 95.6146 53.2872 93.9176 57.1691C92.429 60.5739 90.5319 63.6874 87.6918 66.1764C86.2557 67.4347 84.4606 67.6973 82.7508 68.0672C81.3056 68.3799 79.8497 67.0135 79.4744 65.3865C79.211 64.2445 79.1679 63.0777 79.1389 61.8997Z" fill="black"/>
<path fill-rule="evenodd" clip-rule="evenodd" d="M10.0701 66.9886C10.9167 64.218 10.8256 61.6996 9.53372 59.3002C8.57733 57.5236 7.29704 57.4416 5.99355 59.0094C5.04088 60.1551 4.47881 61.5095 4.03562 62.917C3.37 65.0302 4.12716 66.4861 6.19319 67.2449C7.02408 67.5502 7.50414 67.3535 7.66319 66.516C7.80071 65.7911 8.07201 65.1172 8.86935 65.1512C9.76071 65.1897 9.69319 66.0728 9.8655 66.7007C9.87461 66.7342 9.90733 66.762 10.0701 66.9886ZM13.4968 61.2527C13.561 65.7029 12.371 69.2812 10.0502 72.4945C9.54159 73.1999 8.97 73.8573 8.21656 74.312C7.15869 74.9512 5.99189 74.6041 5.6684 73.446C5.48698 72.7948 5.16887 72.6569 4.59935 72.5591C2.03544 72.1193 0.0924215 70.2525 0.0120668 67.6989C-0.154857 62.4075 1.49118 57.6276 5.10467 53.7478C7.72946 50.93 10.6073 51.6006 12.2579 55.1221C13.2371 57.2118 13.4947 59.4468 13.4968 61.2527Z" fill="black"/>
<path fill-rule="evenodd" clip-rule="evenodd" d="M38.9929 52.1948C38.9403 51.2943 38.7352 50.2555 37.7797 49.7986C36.9024 49.379 36.2098 50.1478 35.6507 50.726C33.3489 53.1048 31.9179 55.9735 31.1181 59.1637C30.9101 59.9917 31.4258 60.3976 32.1507 60.6416C32.8366 60.8727 33.286 60.7489 33.5656 60.0112C33.7445 59.5394 33.998 58.9682 34.6599 59.0618C35.2365 59.1434 35.1192 59.749 35.2845 60.1321C35.3686 60.3264 35.3007 60.6221 35.5852 60.6689C35.8375 60.7103 36.0156 60.4945 36.1113 60.3094C37.423 57.772 38.7124 55.2242 38.9929 52.1948ZM27.3985 60.8201C27.5887 56.7576 29.1258 53.0895 30.7937 49.4635C31.7829 47.3142 33.0358 45.4093 35.2224 44.2355C37.1463 43.2025 38.9332 43.5508 39.9994 45.5034C41.6765 48.5759 42.3342 51.8336 41.2979 55.2831C40.3937 58.2935 39.0123 61.0512 36.9231 63.4329C36.6033 63.797 36.1966 64.1702 35.7977 64.0596C34.9304 63.8193 34.5994 64.4353 34.2946 64.917C33.4691 66.2238 32.2691 66.5365 30.8898 66.3C29.366 66.0386 28.1437 65.3009 27.6234 63.7208C27.3116 62.7739 27.2585 61.8071 27.3985 60.8201Z" fill="black"/>
<path fill-rule="evenodd" clip-rule="evenodd" d="M12.3606 39.5113C12.6961 39.1779 12.7119 38.8295 12.7761 38.5015C12.849 38.13 13.1157 37.92 13.4181 38.0989C14.1632 38.5409 14.5232 38.0078 14.9332 37.5886C16.04 36.4582 17.0378 35.2119 17.7788 33.8359C18.5823 32.3448 19.4331 30.8048 19.2157 28.9749C19.0806 27.8371 18.9754 26.5874 17.7142 26.2109C16.4219 25.8253 15.4452 26.6707 14.5981 27.5736C14.5472 27.6279 14.5141 27.6983 14.466 27.7559C12.6191 29.9864 11.7944 32.6907 11.1329 35.4136C10.7763 36.8828 11.1706 38.3636 12.3606 39.5113ZM7.47553 38.3362C7.55506 34.8304 8.71772 31.6241 10.027 28.4198C10.9304 26.2084 12.1399 24.253 13.684 22.4661C15.0359 20.9025 17.8053 20.2779 19.7065 21.3946C20.4185 21.8129 20.5448 22.7382 21.3223 23.053C20.4185 24.0351 21.7829 24.4452 21.8641 25.1924C22.195 28.2239 22.1006 31.1382 20.6778 33.9838C19.2852 36.7701 17.4632 39.1162 14.9838 40.9677C14.7079 41.1739 14.6358 41.4017 14.6052 41.7223C14.5625 42.1655 14.5041 42.6286 14.3355 43.0345C13.3667 45.3702 11.7459 45.7508 9.85512 44.0737C8.14281 42.5549 7.4134 40.6019 7.47553 38.3362Z" fill="black"/>
<path fill-rule="evenodd" clip-rule="evenodd" d="M72.2318 36.1783C72.1862 35.6025 72.2786 34.9419 71.6916 34.654C71.1449 34.386 70.7071 34.8719 70.2991 35.1846C69.7279 35.6228 69.259 36.1712 68.8784 36.7785C67.3649 39.1937 66.3675 41.8044 65.9301 44.6292C65.8195 45.3458 65.805 46.2338 66.51 46.3689C67.2547 46.5114 68.3238 46.6853 68.7794 45.5703C68.9061 45.2596 69.0648 44.9502 69.2665 44.6835C71.1689 42.1602 71.6059 39.1382 72.2318 36.1783ZM63.0092 45.1491C63.2564 41.2535 64.4046 37.3339 66.512 33.6976C66.7755 33.2441 67.0948 32.8233 67.3591 32.3701C68.4281 30.5381 70.1156 29.8137 72.1352 29.764C72.8328 29.747 73.2217 30.2995 73.5365 30.8811C74.6755 32.9856 74.9659 35.2323 74.5007 37.541C73.5787 42.1154 71.8635 46.3792 69.2768 50.281C68.8146 50.9789 68.2206 51.5514 67.6122 52.0993C66.9246 52.7182 66.3393 52.4841 66.1065 51.5746C66.027 51.2627 66.0498 50.9007 65.6149 50.7814C63.8802 50.305 63.6487 48.7344 63.2183 47.3551C63.0332 46.7603 63.0891 46.0905 63.0092 45.1491Z" fill="black"/>
<path fill-rule="evenodd" clip-rule="evenodd" d="M55.7089 18.0277C54.7853 18.8486 54.4696 19.8415 53.9759 20.7502C53.0688 22.4219 52.6583 24.1972 52.4086 26.0396C52.3672 26.3461 52.3841 26.6741 52.7474 26.7822C53.1024 26.8878 53.2871 26.5925 53.4453 26.3564C53.5886 26.1419 53.5994 25.7509 53.7788 25.6639C54.3847 25.369 53.9738 23.8803 55.2699 24.4117C55.4356 24.4793 55.5896 24.1802 55.3925 24.034C54.5318 23.3974 55.0806 22.6999 55.3154 22.0566C55.7756 20.7945 56.1062 19.5362 55.7089 18.0277ZM56.6044 12.9711C55.3685 13.5489 55.8754 14.1483 56.5912 14.4208C58.2269 15.0446 58.3292 16.5502 58.6291 17.8562C58.8208 18.6912 58.6593 19.6683 58.4402 20.5265C57.449 24.4109 55.6638 27.9511 53.5162 31.3111C53.1628 31.8645 52.5407 32.2252 52.1866 32.8175C52.0333 33.0731 51.7367 33.2384 51.4037 33.1257C51.0748 33.0143 50.9788 32.7819 51.0152 32.4207C51.0827 31.7473 50.7895 31.239 50.2941 30.7515C48.9297 29.4103 49.0573 27.6081 49.2014 25.9629C49.5688 21.7617 50.9854 17.8678 53.2788 14.3284C53.9772 13.2503 54.9514 12.4227 56.6044 12.9711Z" fill="black"/>
<path fill-rule="evenodd" clip-rule="evenodd" d="M59.1627 68.2277C59.2509 68.5342 59.3391 68.8412 59.4675 69.2885C60.45 68.0446 61.1115 66.7552 61.5125 65.3515C61.778 64.4216 61.0531 63.6173 60.0814 63.6686C59.1022 63.72 58.3778 64.2634 57.853 65.0355C56.4687 67.0725 55.852 69.4206 55.4966 71.794C55.391 72.5015 55.4755 73.4587 55.9154 74.2394C56.2956 74.9133 55.5264 76.612 54.7324 76.8675C53.7383 77.1877 53.2665 76.4691 52.9281 75.7442C52.2609 74.3165 52.4941 72.767 52.6307 71.2974C52.9406 67.9742 53.9404 64.8329 55.6557 61.9468C56.419 60.6619 57.2951 59.481 58.9212 59.2474C61.6918 58.8502 62.828 59.1414 63.5478 61.9248C64.4968 65.5926 62.485 70.681 59.3578 72.8809C59.0115 73.1248 58.6615 73.3307 58.2113 73.1563C57.6977 72.9579 57.7722 72.4861 57.7548 72.1001C57.6902 70.6628 58.3339 69.4376 58.8786 68.1867C58.9734 68.2004 59.0678 68.2141 59.1627 68.2277Z" fill="black"/>
<path fill-rule="evenodd" clip-rule="evenodd" d="M39.9966 0.0103168C40.8834 -0.0663109 41.532 0.28162 41.5714 1.12825C41.6401 2.62393 41.9732 4.01813 41.5374 5.65546C40.8043 8.41032 39.6781 10.8889 38.1294 13.1931C37.4455 14.21 37.7243 15.3403 37.2927 16.3568C36.9331 17.2034 36.5098 17.9759 35.8442 18.6088C35.413 19.0188 34.9541 19.3262 34.3394 18.9729C33.7624 18.6415 33.5214 18.277 33.4853 17.4788C33.26 12.4852 35.1504 8.03339 36.8342 3.5186C37.2069 2.52038 37.8017 1.66091 38.4218 0.805998C38.8381 0.232744 39.3413 -0.0588551 39.9966 0.0103168Z" fill="black"/>
</svg>
