<svg width="73" height="114" viewBox="0 0 73 114" fill="none" xmlns="http://www.w3.org/2000/svg">
<path fill-rule="evenodd" clip-rule="evenodd" d="M39.555 87.8643C39.1152 88.0005 38.7539 88.1128 38.2868 88.2574C38.4006 88.0134 38.4757 87.8524 38.5706 87.6482C38.2595 87.1796 37.9077 86.7602 37.2641 86.8531C37.2144 86.6633 37.1826 86.541 37.1379 86.3711H36.0183C35.9065 86.2593 35.8096 86.2061 35.7843 86.1296C35.6128 85.6127 35.5765 84.9985 35.2655 84.593C34.8649 84.0717 35.0642 83.5604 35.0458 83.0555C35.0304 82.6455 35.1959 82.2256 35.2968 81.8142C35.6585 80.3433 36.2181 78.9444 36.9307 77.6141C37.3695 76.7961 37.861 75.9995 38.3996 75.2437C38.9259 74.5053 39.5426 73.8309 40.1374 73.1059C39.9759 73.0025 39.799 72.8823 39.6151 72.7735C37.8376 71.7219 36.2807 70.3981 34.8371 68.9302C34.1558 68.2374 34.1518 67.3077 33.9531 66.452C33.8731 66.1096 33.9401 65.7324 33.9401 65.3711C34.3044 64.6764 35.0384 64.6178 35.7505 64.3345C35.9905 64.7569 36.237 65.1912 36.5153 65.6797C36.564 65.6439 36.6484 65.5818 36.8 65.47C36.8929 65.5624 37.0564 65.6514 37.1021 65.7821C37.3854 66.5876 38.0433 66.9976 38.7425 67.3464C40.1652 68.0575 41.6009 68.7408 43.1285 69.4828C43.4858 69.1051 43.8431 68.5257 44.3618 68.2359C44.8399 67.9686 44.8647 67.2038 45.6101 67.2774C45.5038 67.1467 45.4298 67.0557 45.3194 66.9206C45.548 66.7605 45.7796 66.5985 46.1021 66.3729C46.204 66.1483 46.3595 65.8059 46.5116 65.4705C46.7422 65.4571 46.9563 65.4447 47.2649 65.4268C47.1337 65.2578 47.0652 65.1699 46.9588 65.0327C47.5343 64.9487 47.5725 64.3529 47.9348 64.0329C48.3174 63.6945 48.5883 63.2298 48.951 62.7647C49.0315 62.8238 49.1155 62.8855 49.2755 63.0032C49.3461 62.8373 49.4122 62.6807 49.4952 62.4844C49.5931 62.5634 49.6835 62.636 49.8465 62.7682C50.0239 61.8165 50.5636 61.0533 51.1371 60.367C51.7279 59.6594 52.2591 58.8469 53.2262 58.3733C53.3474 58.4732 53.5099 58.6069 53.6938 58.7579C53.3116 59.4919 52.9414 60.2194 52.1583 60.6025V61.6864C52.3436 61.6411 52.5319 61.6496 52.5712 61.577C52.7282 61.2843 52.8391 60.9668 52.9012 60.8172C53.5452 60.2865 54.0714 59.8532 54.7353 59.3065C54.7731 59.8129 54.797 60.1434 54.8208 60.4604C54.6186 60.5434 54.4645 60.6065 54.3025 60.6731C54.3443 60.7312 54.3964 60.8436 54.4243 60.8376C54.7532 60.77 55.0787 60.6845 55.4788 60.5856C55.5921 60.7854 55.7302 61.0284 55.8694 61.2729C55.7948 61.3559 55.7059 61.4543 55.61 61.5606C55.6666 61.9532 56.1387 62.2996 55.7734 62.7493C55.6671 62.6534 55.5727 62.5679 55.4763 62.48C55.4316 62.5639 55.3446 62.6529 55.3625 62.709C55.4122 62.8681 55.5051 63.0137 55.6095 63.2194C55.5349 63.9076 54.9848 64.3648 54.4745 64.8295C53.9914 65.2692 53.4602 65.6554 52.8391 66.1538C53.0945 66.3004 53.3166 66.4286 53.5666 66.5727C53.4105 66.8724 53.3161 67.0532 53.2167 67.2431C53.2744 67.3072 53.3608 67.4016 53.495 67.5497C53.2003 67.5969 52.9519 67.6371 52.5956 67.6953C52.6925 67.9423 52.7754 68.1525 52.8714 68.3965H51.9689C51.8015 68.7398 51.6554 69.0395 51.5162 69.3247C51.6454 69.4639 51.7359 69.5613 51.8661 69.7014C51.5893 69.7526 51.3413 69.7988 50.9805 69.8664C51.068 70.097 51.148 70.3047 51.2419 70.5517C51.0103 70.5859 50.7609 70.6227 50.4359 70.6704C50.5313 70.9278 50.6088 71.1365 50.737 71.4824C50.3842 71.3453 50.1273 71.2454 49.8172 71.1251C49.6711 71.4034 49.522 71.6877 49.3769 71.9639C49.4286 72.0623 49.449 72.1702 49.5101 72.2035C49.6179 72.2621 49.7635 72.2512 49.8704 72.3108C50.2853 72.5424 50.3822 73.0791 50.7902 73.3091C51.23 73.5576 51.4213 73.984 51.7016 74.3636C51.954 74.7055 52.1414 74.9938 52.113 75.4266C52.1031 75.5747 52.2353 75.7317 52.3173 75.9171C52.2457 76.0388 52.1433 76.2122 52.0037 76.4498C51.6375 76.492 51.3711 76.9825 50.7027 76.7236C49.5354 76.2709 48.3204 75.8654 47.0527 75.7128C46.9822 75.7044 46.924 75.5921 46.8088 75.4768C46.438 75.8947 46.0698 76.3096 45.6077 76.8309C45.6017 76.8801 45.5769 77.0933 45.5495 77.3234C45.2901 77.3641 45.0417 77.4034 44.6555 77.464C44.9105 77.8218 45.1008 78.0892 45.3845 78.4877C45.064 78.3938 44.8503 78.3317 44.579 78.2522C44.5229 78.3187 44.4091 78.4534 44.2853 78.5995C44.4424 79.0333 44.3161 79.2987 43.8078 79.5874C43.6557 80.134 43.5096 80.6593 43.3879 81.0976C43.1583 81.1821 43.0301 81.2293 42.8646 81.2904L43.1613 81.5871C42.7563 81.8972 42.2916 82.1481 41.9776 82.5248C41.6938 82.8642 41.5755 83.3413 41.3549 83.8223C41.3763 83.8551 41.4652 83.9883 41.6063 84.1995C41.3077 84.5071 41.0145 84.8092 40.7322 85.0994C40.8421 85.2366 40.9231 85.3374 41.0632 85.5124C40.8639 85.74 40.6681 85.9636 40.45 86.2125V87.0027C40.13 87.3108 39.8055 87.6233 39.555 87.8643Z" fill="black"/>
<path fill-rule="evenodd" clip-rule="evenodd" d="M72.883 93.2651C73.5091 94.0224 73.5096 94.0239 74.2695 93.604C74.2908 93.8465 74.2834 94.0577 74.3355 94.2525C74.3728 94.3907 74.4901 94.5074 74.5656 94.6247C74.4692 94.7216 74.4051 94.7852 74.3236 94.8667C74.513 94.9552 74.6938 95.0402 74.99 95.1788C74.6819 95.6176 74.3912 96.031 74.101 96.445C74.4752 97.1178 73.6836 97.2371 73.5698 97.5974C73.3944 98.154 72.7175 98.2737 72.6982 98.8685C72.6758 99.5623 71.9642 99.6477 71.6551 100.052C71.3867 100.403 70.9097 100.633 70.8481 101.081C70.9549 101.264 71.0394 101.408 71.178 101.646C70.777 101.873 70.4277 102.071 70.0773 102.27L69.232 102.669C68.9751 102.972 68.7182 103.275 68.3748 103.68V103.946C67.5097 104.581 66.7016 105.176 65.7634 105.866C66.0318 106.003 66.1943 106.086 66.4636 106.223C66.0909 106.744 65.7137 107.272 65.3082 107.839C66.3493 108.194 67.3288 108.528 68.339 108.873C68.2392 109.074 68.1547 109.244 68.0404 109.473C68.4906 109.634 68.9115 109.784 69.392 109.955V110.545C69.6942 110.822 69.959 111.065 70.2334 111.318C70.2503 111.636 70.2657 111.94 70.2811 112.231L70.7725 112.722L69.5257 113.76C69.232 114.087 68.9259 114.026 68.597 113.808C68.4971 113.742 68.3569 113.704 68.2357 113.707C66.8363 113.737 65.5716 113.205 64.2985 112.739C63.3593 112.396 62.4553 111.957 61.4814 111.538C61.2155 111.803 60.8015 112.004 60.7484 112.55C60.1858 112.683 59.6089 112.82 59.0692 112.948C58.791 112.666 58.5688 112.442 58.3462 112.216C58.4307 112.123 58.5181 112.026 58.6473 111.884C58.5132 111.604 58.3686 111.304 58.2821 111.125C57.8632 111.19 57.4925 111.247 57.1307 111.303C56.9304 110.907 56.7505 110.55 56.5662 110.185C56.4762 110.275 56.4126 110.338 56.3893 110.362C56.0896 110.057 55.7875 109.75 55.3701 109.327C55.4998 108.387 54.898 107.307 55.0595 106.14C55.0938 105.895 54.9064 105.541 54.7091 105.357C53.9096 104.606 53.8753 103.522 53.4996 102.599C53.356 102.247 53.2029 101.799 53.1905 101.374C53.1696 100.697 53.0906 100.003 53.2064 99.3456C53.3893 98.3065 53.5861 97.1983 54.7961 96.7894C55.1961 96.6542 55.6364 96.6393 56.1637 96.5518V98.6653C56.6223 98.3701 56.9294 98.1723 57.3876 97.8772C57.4512 98.064 57.5277 98.2866 57.6033 98.5093C57.6714 98.4576 57.7394 98.4059 57.8075 98.3542V99.601C58.0406 99.4828 58.209 99.3973 58.3681 99.3163C58.943 99.8192 58.9281 100.463 58.8486 101.126C59.0409 101.194 59.1974 101.249 59.4484 101.338C59.3416 101.628 59.2347 101.916 59.1055 102.265C59.262 102.236 59.3406 102.245 59.3843 102.209C59.4896 102.126 59.5622 101.977 59.6775 101.933C60.8348 101.493 61.4172 100.263 62.5791 99.8351C62.8126 98.9938 63.6997 98.8144 64.218 98.2474C64.7571 97.658 65.5179 97.2744 66.1684 96.7829C66.7981 96.3068 67.1529 95.5048 67.9743 95.2529C68.514 94.2704 69.2907 93.526 70.2572 92.9704C70.2234 92.305 71.1388 92.2225 71.1174 91.5209H72.3394C72.4268 91.6078 72.5545 91.7355 72.6823 91.8633C72.0974 92.1545 71.8837 92.7195 71.5095 93.3168C72.319 93.4843 72.7851 92.4988 73.5479 92.9535C73.3273 93.0569 73.1469 93.1414 72.883 93.2651Z" fill="black"/>
<path fill-rule="evenodd" clip-rule="evenodd" d="M69.7402 78.9411C69.6771 78.3075 70.5686 78.2379 70.1462 77.6476C70.0384 77.744 69.9424 77.829 69.8465 77.9139C69.8147 77.8816 69.7596 77.8533 69.7541 77.8175C69.6537 77.1536 69.694 76.524 70.1651 75.9829C70.6834 75.3885 71.1972 74.7892 71.6941 74.177C71.8512 73.9837 71.9481 73.7417 72.1026 73.4694C71.8571 72.8298 71.5207 72.1669 71.2285 71.508C70.9149 70.8003 70.9219 70.0331 70.581 69.3329C70.3996 68.9612 70.8727 68.3087 70.7619 67.8535C70.6372 67.3441 70.3365 66.9108 70.7758 66.4308C70.7847 65.0881 71.6976 64.2512 72.4962 63.319H74.7538C74.8859 63.4442 75.0166 63.5684 75.2283 63.7687C74.885 64.2065 74.5411 64.6443 74.1609 65.1288C74.2032 65.2193 74.305 65.4354 74.4412 65.7251C74.5684 65.7251 74.8119 65.7982 74.8989 65.7122C75.276 65.342 75.7118 65.4916 76.1089 65.4478C76.2555 65.7654 76.3777 66.0307 76.5139 66.3254C76.3102 66.5799 76.1 66.8427 75.7809 67.2408C76.2634 67.3024 76.587 67.3436 77.0123 67.3978V68.6968C77.9277 68.7266 78.0281 67.618 78.7988 67.6224C79.1486 67.0897 79.659 66.719 80.1187 66.2941C80.6489 65.8046 81.1533 65.2858 81.6532 64.7646C82.1134 64.284 82.5805 63.8055 82.9939 63.2867C83.4193 62.752 83.785 62.1696 84.031 61.8167C84.5911 61.616 84.9066 61.5027 85.2982 61.3625C85.4264 61.5449 85.6366 61.7303 85.6903 61.9534C85.7315 62.1248 85.5949 62.3529 85.5029 62.5383C85.3981 62.749 85.2545 62.9398 85.256 63.3105C85.651 63.1441 86.0461 62.9771 86.4809 62.7937C86.713 63.2459 86.9614 63.7299 87.3381 64.4639C87.3381 64.4485 87.3163 64.7154 87.3456 64.9763C87.3684 65.179 87.4544 65.3748 87.5304 65.6347C87.4768 65.7281 87.3784 65.901 87.2874 66.0611C87.4241 66.2087 87.515 66.3065 87.596 66.3935C86.8109 67.6508 86.1042 68.9522 85.243 70.1692C84.52 71.1909 84.6214 71.2625 84.0917 71.5517C84.1761 71.6456 84.2616 71.74 84.3302 71.8161C83.2578 73.0176 82.1944 74.2098 81.115 75.4198V75.8695C81.9628 76.4097 82.7832 76.932 83.6409 77.4781C83.5167 77.7216 83.4407 77.8707 83.3234 78.1018C83.6479 78.3806 83.866 78.9167 84.4942 78.719C84.6318 78.9923 84.7441 79.2154 84.8544 79.4351C84.7754 79.5454 84.677 79.682 84.5424 79.8694C84.8823 80.2098 85.1874 80.5154 85.5174 80.8458C85.3916 81.1694 85.2848 81.4452 85.166 81.7508C85.253 81.8998 85.3573 82.0797 85.4537 82.2452C85.406 82.3481 85.3911 82.4544 85.332 82.4937C85.1988 82.5806 85.003 82.5975 84.9056 82.7079C84.3227 83.3658 84.2184 83.4026 83.4854 83.1521C82.5362 82.8276 81.5155 82.6368 80.6484 82.1632C79.4866 81.5291 78.4425 80.6794 77.2424 79.849C76.7385 80.2217 76.173 80.733 75.6284 81.315C75.1016 81.878 74.4074 82.3242 73.4424 82.6115C73.6123 82.3307 73.6819 82.2159 73.8324 81.9654C73.2277 82.0782 72.7203 82.1727 72.2134 82.2671L72.1265 82.0927C72.4316 81.8546 72.7362 81.6171 73.0413 81.3796L72.5697 80.908H71.6444C71.5212 80.5984 71.384 80.2515 71.222 79.844H70.099C69.9444 79.4549 69.8058 79.1061 69.7402 78.9411Z" fill="black"/>
<path fill-rule="evenodd" clip-rule="evenodd" d="M75.6184 52.349C75.1532 52.4603 74.7433 52.5587 74.1648 52.6973C73.571 52.2585 72.8609 51.7119 72.1279 51.1991C71.2538 50.5874 70.4945 49.8082 69.4966 49.3773C69.2656 49.2774 69.0231 49.2054 68.702 49.0901C68.3129 48.5072 68.2677 47.4249 67.1263 47.5441C66.61 47.072 66.5468 46.2521 65.792 46.1726C65.545 45.7517 65.389 45.2702 65.0645 44.9695C63.5831 43.5955 62.5112 41.9452 61.5894 39.954C61.5094 39.3393 61.5089 38.5198 61.3762 37.6979C61.1675 36.4034 61.8573 35.2917 62.9784 34.5742C63.2879 34.3764 63.4475 33.9416 63.9618 33.9878C64.3196 34.0201 64.6973 33.8297 65.1723 33.713C65.313 33.8382 65.4993 34.0037 65.7344 34.2124C65.3522 34.8539 64.6297 35.2589 64.575 36.1206C65.4253 36.4044 65.8064 35.4597 66.6621 35.3509C66.7665 35.4443 66.9518 35.6093 67.1258 35.7653C66.8226 36.22 66.6184 36.5261 66.2422 37.0901C66.8271 36.9053 67.243 36.9023 67.3966 36.7C67.7847 36.1882 68.4123 35.983 68.7766 35.4135C69.116 34.8832 69.6726 34.4882 70.2415 34.1185C71.0461 33.5962 71.6981 32.8453 72.4524 32.2381C73.5611 31.3456 74.6002 30.3676 75.835 29.6257C76.3235 29.333 76.6848 28.8231 77.0903 28.3983C77.459 28.0116 78.0449 27.8427 78.1607 27.2662H79.9834V28.442C79.9328 28.4927 79.7578 28.6676 79.5471 28.8788C79.7886 28.8356 80.0297 28.8013 80.2662 28.7476C80.5067 28.6929 80.7433 28.6194 81.108 28.5195C81.0524 29.3946 81.0946 30.1693 81.7267 30.7338C81.5935 30.9132 81.5175 31.0156 81.3644 31.2228C81.5572 31.3292 81.7809 31.4514 82.1968 31.6795C81.7684 31.7968 81.6228 31.8365 81.4241 31.8912C81.4996 32.0641 81.601 32.2256 81.6377 32.4011C81.675 32.574 81.6462 32.7603 81.6462 32.9377C81.1438 33.6275 80.6409 34.3172 80.0888 35.0746C79.9874 35.086 79.7737 35.1093 79.4597 35.1436C79.5551 35.2748 79.6137 35.3568 79.6908 35.4632C79.6098 35.657 79.5198 35.8721 79.4189 36.1117C78.2263 36.054 78.2178 37.2829 77.4804 37.7615C77.6364 37.9667 77.7139 38.0686 77.7492 38.1153C77.2588 38.6063 76.7638 39.1012 76.2639 39.6006C76.3041 39.6374 76.24 39.5793 76.2679 39.6041C76.0452 39.8262 75.8157 40.0558 75.5861 40.2859C75.5115 40.2278 75.4375 40.1701 75.363 40.112V40.8256C75.2054 40.6959 75.114 40.6203 74.9088 40.4519C74.954 40.756 74.9843 40.9583 75.0265 41.2425C74.6881 41.6808 74.2811 42.2081 73.8403 42.7795C73.6421 42.6344 73.5069 42.5345 73.3866 42.4461C72.8987 43.0166 72.3982 43.6015 71.8934 44.1918C72.0877 44.2887 72.2671 44.3777 72.5284 44.5074C72.2849 44.816 72.0757 45.0813 71.8794 45.3303C71.9112 45.4401 71.9112 45.5415 71.9614 45.5981C72.7868 46.5234 73.7658 47.3508 74.4093 48.3874C75.1344 49.5547 76.0403 50.7598 75.6184 52.349Z" fill="black"/>
<path fill-rule="evenodd" clip-rule="evenodd" d="M15.1657 17.4441C14.8283 17.4858 14.625 17.5111 14.3686 17.543C14.5246 17.7159 14.6136 17.8138 14.7557 17.9713C14.4193 18.597 13.7817 18.9721 13.3494 19.5193L13.5611 19.731C13.2167 20.0013 12.8718 20.2716 12.5786 20.5017C12.4166 20.9286 12.7625 21.4101 12.1925 21.6745C12.6974 22.0129 13.1591 22.315 13.6128 22.6281C15.0355 23.611 16.5571 24.4543 17.7299 25.7781C18.4017 26.536 19.0343 27.2685 19.0462 28.3567C19.0482 28.5401 19.2346 28.721 19.3832 28.9898C18.9742 29.2487 18.5911 29.4907 18.111 29.7944C15.4062 28.2096 12.61 26.7974 10.0453 24.7276C9.86141 24.8325 9.45989 24.9209 9.38585 25.1272C9.09216 25.9441 8.51671 26.5176 7.93082 27.1025C7.85926 27.174 7.8861 27.3435 7.86672 27.4687C7.61577 27.4965 7.40258 27.5194 7.07709 27.5552C7.1397 27.7694 7.19288 27.9512 7.2858 28.2698C6.76402 28.7066 6.37443 29.3566 6.16919 30.1636C6.04993 30.6322 5.6007 31.0163 5.19818 31.5823V34.5272C4.94176 34.5436 4.72808 34.557 4.48608 34.5724C4.4339 34.719 4.37824 34.876 4.31165 35.0644H3.37741C3.23132 34.641 3.08174 34.2066 2.90881 33.7062C2.64891 33.8205 2.38951 33.9343 2.08042 34.07C2.01681 33.8732 1.96662 33.7192 1.91643 33.5651C1.8399 33.5333 1.75542 33.4627 1.68635 33.4757C1.11289 33.5845 0.720308 33.0995 0.649743 32.7909C0.362018 31.5346 -0.450966 30.2923 0.329718 28.9436C0.344129 27.6079 1.17351 26.5886 1.64361 25.4268C1.79716 25.0477 2.45709 25.1142 2.2782 24.4593C2.20465 24.1899 2.69363 23.7631 2.93415 23.4127C3.1523 23.0952 3.35754 22.7657 3.60849 22.476C3.90317 22.1356 4.26196 21.8504 4.55416 21.5085C4.79716 21.2232 4.9845 20.8908 5.22253 20.541C3.57569 19.3041 2.56841 17.5469 1.41403 15.9085C1.04381 14.3233 0.404258 12.7838 0.653719 10.9278C1.03487 10.49 1.52236 9.92942 2.04663 9.32764C2.62704 9.4469 3.27952 9.08712 3.80975 9.69189C3.46239 10.16 3.11752 10.6246 2.76917 11.0942C2.86508 11.1956 2.95403 11.291 3.04198 11.3844C3.77745 11.5365 4.04679 10.4661 4.81505 10.7141C4.92934 10.9357 5.04314 11.1578 5.1624 11.3884C4.92586 11.54 4.65503 11.7139 4.37079 11.8958C4.54422 12.0697 4.67193 12.1974 4.79964 12.3251C5.18327 11.9281 5.55597 11.9231 6.00669 12.4663C5.96594 12.7689 6.2005 13.2062 5.74779 13.5585C5.93563 13.649 6.1195 13.7374 6.38238 13.8632C6.16621 14.1539 5.97439 14.4113 5.7781 14.6751C5.96098 14.7402 6.11801 14.7954 6.44648 14.9122C6.14434 14.9937 6.00123 15.0319 5.75077 15.0995C5.77711 15.3197 5.72443 15.6208 5.84966 15.7893C6.36846 16.487 6.94093 17.1444 7.55464 17.8903C7.89256 17.5872 8.15196 17.3616 8.40291 17.1275C9.88576 15.745 11.1266 14.0873 12.9658 13.1083C12.9558 12.599 13.489 12.6347 13.7186 12.3619C13.9785 12.0533 14.2672 11.7691 14.4536 11.5698H15.3645C14.9515 12.1776 14.2479 12.5209 14.4774 13.3965C15.0658 13.0457 15.6418 12.7023 16.3434 12.2844C16.2808 12.6854 16.2321 12.9945 16.1774 13.3458C16.4229 13.4696 16.7877 13.6549 17.1793 13.8527C17.0784 14.0619 16.9939 14.2364 16.8955 14.4406C17.0371 14.4704 17.1604 14.4958 17.2891 14.5226C17.3025 14.5753 17.3542 14.6652 17.3293 14.6985C16.9994 15.1438 16.5576 15.5373 16.3474 16.0308C16.084 16.65 15.5031 16.9287 15.1657 17.4441Z" fill="black"/>
<path fill-rule="evenodd" clip-rule="evenodd" d="M39.9041 31.2771C40.984 29.9522 41.8958 28.851 42.7888 27.7344C43.6346 26.6769 44.3577 25.535 45.0151 24.3647C44.9311 24.2609 44.8496 24.1605 44.71 23.9885C44.9396 23.7281 45.1667 23.4697 45.4077 23.1959H46.3007C46.6346 23.5299 46.9035 24.0064 47.2856 24.1282C47.7522 24.2763 47.8183 24.6495 48.0066 24.9282C48.6596 25.8938 49.1138 26.8737 48.6119 28.132C48.3033 28.9057 47.9907 29.6799 47.6697 30.4502C47.5733 30.6822 47.5028 30.9252 47.38 31.2786L46.6957 31.9633V32.8161C46.16 33.7866 45.7143 34.5956 45.2263 35.4801C45.9006 35.9383 46.5218 36.3801 47.1619 36.7925C48.43 37.61 49.4791 38.6252 50.1057 40.0201C50.2404 40.3203 50.302 40.6537 50.4421 41.1223C50.3939 41.2292 50.2761 41.492 50.146 41.7803C49.8667 41.9105 49.565 42.0511 49.3295 42.1604C48.6924 41.9403 48.1289 41.7758 47.5902 41.5517C47.051 41.3281 46.5367 41.0448 46.0115 40.7879C45.922 40.0032 45.0275 40.3203 44.6593 39.7866C44.3572 39.3483 43.6853 39.1659 43.0959 38.8225C41.3298 40.6244 39.7744 42.5928 38.3472 44.666C38.2374 44.825 38.2727 45.0839 38.2409 45.2961C37.6187 45.7751 37.0035 45.7021 36.3863 45.2668V44.8359C35.5843 44.3554 34.8324 43.9052 34.01 43.4122C33.6164 42.951 33.8167 42.2265 33.5603 41.666C33.2745 41.0418 33.516 40.4376 33.4077 39.9784C34.3042 37.9802 35.3651 36.23 36.8843 34.7198V33.7975C36.0062 33.1858 35.4606 32.2322 34.908 31.2969C34.7226 30.9834 34.6938 30.5739 34.6088 30.2052C34.4364 29.4548 34.1785 28.7288 34.2013 27.9317C34.2455 26.4071 35.1112 25.3193 36.5667 24.7722C37.4846 24.4273 38.3761 24.6008 39.363 24.5039C38.8318 25.6036 37.5591 25.5096 36.8152 26.4315C38.0983 26.3748 38.88 25.1663 40.1884 25.3968C40.1377 25.7049 40.087 26.0135 40.0333 26.3385C40.2734 26.423 40.6257 26.5477 40.9646 26.668V28.3889C40.6157 28.9976 40.2326 29.6049 39.92 30.2469C39.8192 30.4531 39.9041 30.7503 39.9041 31.2771Z" fill="black"/>
<path fill-rule="evenodd" clip-rule="evenodd" d="M62.8056 14.4071C62.2982 15.0432 61.8351 15.6246 61.3227 16.2666V18.0054C60.8462 18.1967 60.3825 18.3836 59.8588 18.5938C59.2396 17.9925 58.9886 17.1949 58.7904 16.4411C58.525 16.54 58.2905 16.6269 57.9421 16.7561C57.6688 16.363 57.3363 16.0157 57.1569 15.6022C56.6203 14.3634 56.663 13.0405 56.7216 11.7957C56.9467 11.2829 57.1475 10.8247 57.398 10.2527C57.0233 10.1966 56.6913 10.2488 56.5537 10.1096C55.6781 9.22459 54.8139 8.32414 54.0114 7.37351C53.579 6.86067 53.1228 6.28075 52.9504 5.65611C52.6989 4.74175 52.693 3.7598 52.5742 2.7386C52.9867 2.15868 53.3221 1.47937 53.8459 1.01126C54.3274 0.580916 55.0122 0.378167 55.7546 0C55.9275 0.187344 56.096 0.368725 56.2664 0.553088C56.1671 0.648499 54.8437 1.92314 54.8437 1.92314C54.9391 2.01904 55.035 2.11495 55.1762 2.25558C55.7819 1.81381 56.3852 1.23588 57.3701 1.61702C57.1256 1.95196 56.9353 2.21235 56.6009 2.67003C57.0531 2.49362 57.3055 2.39572 57.6554 2.25956C57.8204 2.50803 57.9973 2.77488 58.2119 3.09888C57.8382 3.47307 57.5446 3.76676 57.1902 4.12157C57.4188 4.16828 57.5421 4.19412 57.7468 4.23636C57.4397 4.75417 57.6131 5.47025 56.8215 5.73462C57.6072 6.70116 58.4818 7.23387 59.3693 7.82324C62.3569 5.34602 65.2793 2.92247 68.2411 0.466621H69.5485C69.3194 0.925788 69.1375 1.29203 68.9532 1.66274C69.3457 1.96239 69.6563 1.62597 70.0042 1.4749C71.009 2.41262 71.2455 3.58339 71.0388 4.88934C70.6214 5.42503 70.1925 5.97514 69.7547 6.53667C69.7831 6.56251 69.8482 6.62314 70.027 6.78862C69.786 6.81943 69.554 6.84924 69.3214 6.87906C69.4123 6.97646 69.5033 7.07436 69.5942 7.17225H69.0898C68.1611 8.91997 66.5912 10.1091 65.4418 11.7013C67.0171 12.5789 68.7797 13.2319 70.4465 14.2252C70.4971 14.4757 70.5543 14.7599 70.6214 15.0959C70.8261 14.8792 70.9797 14.7167 71.1278 14.5602C71.7986 14.6506 71.7847 15.4219 72.3477 15.7041C72.8407 15.9516 73.1284 16.6085 73.512 17.0906V18.6996C73.3818 18.8298 73.2541 18.9575 73.0752 19.1364C71.6798 18.9874 70.526 18.1923 69.2553 17.5492C69.2295 17.5726 69.135 17.6581 69.0938 17.6953C68.2048 17.4757 67.6746 16.5216 66.6489 16.6642C66.1708 16.0495 65.3847 16.0018 64.7715 15.6395C64.1518 15.2738 63.5515 14.8767 62.8056 14.4071Z" fill="black"/>
<path fill-rule="evenodd" clip-rule="evenodd" d="M20.7684 49.9784C20.9214 50.1315 21.0491 50.2592 21.23 50.4401C20.3996 51.1502 19.5737 51.8558 18.7483 52.562C18.7667 52.6097 18.7856 52.6574 18.8045 52.7046C18.9799 52.6534 19.1941 52.6489 19.3218 52.5416C19.5603 52.3418 19.7482 52.0829 20.0756 52.0183C20.6546 51.6918 21.2335 51.3648 21.7965 51.0468C22.2875 51.4439 21.9292 51.7574 21.718 52.239C22.0395 52.1172 22.2477 52.0382 22.4719 51.9527C22.5698 52.0506 22.6975 52.1783 22.8257 52.3065C22.8262 52.8477 22.8262 53.3894 22.8262 53.9375C22.6682 54.0915 22.5071 54.2495 22.3367 54.4155C22.3615 54.4781 22.368 54.5646 22.4142 54.5984C22.7223 54.8295 23.0299 55.0635 23.3549 55.2693C23.7043 55.4899 24.1932 55.5535 24.2067 56.1185C24.2082 56.1836 24.3185 56.2572 24.391 56.3083C24.6698 56.5046 24.9963 56.6532 25.2234 56.8962C25.45 57.1382 25.5787 57.4717 25.8078 57.8633C25.8078 58.0923 25.8078 58.4536 25.8073 58.8144C25.5832 59.038 25.36 59.2616 25.1732 59.4485C23.4642 58.8377 21.7752 58.2345 20.0866 57.6312C19.7114 57.8315 19.3074 58.0466 18.9029 58.2618C18.886 58.2345 18.8691 58.2071 18.8522 58.1798C18.5009 58.5306 18.1495 58.882 17.7008 59.3307C17.6943 59.4375 17.6814 59.6472 17.665 59.9146C16.9534 60.5989 16.2085 61.316 15.6077 61.8944C15.3061 62.8301 15.4591 63.7912 14.2123 63.9885C13.9544 63.576 13.0281 63.5099 13.2393 62.5484C12.9829 62.4743 12.6679 62.3824 12.3245 62.283C12.2469 62.3352 12.1073 62.4286 11.9985 62.5011C11.6496 62.1324 11.345 61.8094 10.9022 61.3408C10.8034 60.4955 10.6766 59.4137 10.5435 58.2752C11.669 57.0582 12.7782 55.8591 13.9549 54.5865C13.4947 54.2982 13.0202 54.0572 12.6137 53.7317C12.1933 53.3948 11.839 52.9754 11.4449 52.5813C11.5537 52.23 11.6645 51.8717 11.7838 51.4846C11.5632 51.4091 11.4056 51.3549 11.2098 51.2873V50.372C11.2854 50.2959 11.3813 50.2005 11.4921 50.0892C11.8797 50.0122 12.2867 49.9312 12.7896 49.8308C14.1283 50.5822 15.5923 51.4036 17.0165 52.2022C18.4447 51.659 19.3705 50.4063 20.7684 49.9784Z" fill="black"/>
</svg>
