<svg width="64" height="104" viewBox="0 0 64 104" fill="none" xmlns="http://www.w3.org/2000/svg">
<path fill-rule="evenodd" clip-rule="evenodd" d="M51.9521 82.4133C51.1817 83.0167 50.8201 83.8911 50.6652 84.874C50.5799 85.4162 50.0849 85.4904 49.7125 85.5856C49.3903 85.6685 49.0929 85.6792 48.8323 85.9451C48.7246 86.0553 48.3883 86.0793 48.2471 85.9932C47.7952 85.7178 47.3114 85.5164 46.8943 85.1491C45.4255 83.8567 44.349 82.2583 43.3413 80.6276C42.3132 78.9638 41.2371 77.3178 40.4497 75.5131C40.2049 74.9514 40.195 74.956 40.8113 74.5198C41.3125 75.4729 41.7797 76.4405 42.3207 77.365C42.7498 78.0985 43.2688 78.7786 43.7915 79.5462C43.9145 79.2372 43.9116 79.0392 43.7207 78.7637C42.681 77.2618 41.694 75.726 40.9112 73.9673C41.0362 73.8857 41.1874 73.7867 41.3378 73.6889C41.3726 73.7188 41.45 73.7859 41.5826 73.9006V73.2743C41.9541 73.2002 42.2909 73.1335 42.7291 73.0465C43.0708 73.206 43.2332 73.8107 43.7957 73.8857C43.7774 74.4975 44.3122 74.8023 44.581 75.2492C44.9144 75.8034 45.3663 76.286 45.6861 76.6956C46.0473 76.6476 46.3173 76.597 46.5899 76.578C47.5467 76.5109 47.5235 76.5411 48.1195 77.0667C48.7818 77.6508 49.2349 78.468 50.089 78.8391C50.1441 78.8627 50.2054 78.9464 50.2083 79.0048C50.2348 79.6195 50.579 79.8427 51.156 79.9918C51.6402 80.1173 51.7777 80.6276 51.8005 81.1296C51.8179 81.5144 51.8887 81.8967 51.9521 82.4133Z" fill="black"/>
<path fill-rule="evenodd" clip-rule="evenodd" d="M39.7508 53.8002C39.1916 53.241 38.7223 52.6934 38.1752 52.2395C36.6058 50.9372 35.8606 49.0948 34.922 47.3801C34.5004 46.6101 34.6209 45.7452 34.6392 44.9122C34.6425 44.7677 34.8421 44.6273 34.9589 44.4757C35.1184 44.7913 35.2679 45.087 35.4862 45.5186V43.9766C35.8147 43.8138 36.139 43.7251 36.3602 43.5238C36.6348 43.2741 36.945 43.3234 37.1968 43.3867C37.4901 43.4605 37.7403 43.7053 38.0352 43.8925C37.8625 44.7018 38.181 45.3795 38.5757 46.0857C38.929 45.99 39.3461 46.241 39.6999 45.8782C39.7748 45.8011 40.0209 45.7949 40.1269 45.8587C40.9934 46.3802 42.0567 46.6569 42.4949 47.7272C42.5736 47.9202 42.661 48.1695 42.8192 48.2553C43.0578 48.3845 42.8436 48.7879 43.2533 48.8037C43.5905 48.8165 43.3751 49.1603 43.4355 49.3475C43.5105 49.5795 43.6128 49.8064 43.6534 50.0442C43.6907 50.2621 43.6613 50.4915 43.6613 50.7177C42.7939 51.4616 42.2364 52.4093 41.809 53.4651C41.1152 53.5777 40.411 53.6925 39.7508 53.8002Z" fill="black"/>
<path fill-rule="evenodd" clip-rule="evenodd" d="M11.5463 10.0765C11.0646 10.4037 10.6007 10.7318 10.1173 11.0271C10.0705 11.0557 9.90237 10.8854 9.72095 10.7587C9.60994 10.9579 9.53456 11.1406 9.41692 11.2897C9.27858 11.4657 9.10089 11.6107 8.9439 11.7726C8.6258 12.1003 8.31929 12.4652 7.84917 11.9673C7.81314 11.9296 7.70379 11.9669 7.62964 11.959C7.10154 11.9019 6.59828 12.0336 6.06686 11.6086C5.63899 11.2665 5.09432 11.03 4.69213 10.61C4.31521 10.2157 3.92503 9.84537 3.66201 9.34501C3.25858 8.57667 2.86012 7.81702 3.00385 6.91531C3.03988 6.68915 3.19521 6.48164 3.33562 6.17886C3.61976 6.41164 3.81195 6.56903 4.03645 6.75335C4.22035 6.14324 4.18266 5.43412 4.74805 4.89649C4.96964 5.06217 5.18379 5.22205 5.45095 5.4217V4.59785C6.19319 4.47111 6.86751 4.21596 7.61142 4.26069C8.03805 4.28637 8.40669 4.4214 8.67674 4.68028C9.02385 5.01247 9.44882 5.25022 9.73213 5.67602C9.98811 6.06122 10.3381 6.38347 10.6069 6.78028C11.048 7.43264 11.1972 8.19519 11.5198 8.88939C11.6739 9.22034 11.5463 9.68259 11.5463 10.0765Z" fill="black"/>
<path fill-rule="evenodd" clip-rule="evenodd" d="M56.9466 32.04C56.9764 31.8316 57.0063 31.6229 57.0394 31.3934C57.1214 31.4531 57.1943 31.4767 57.2134 31.5226C57.5029 32.2309 57.8637 32.9098 58.0339 33.6674C58.1408 34.1437 58.277 34.5997 57.816 34.9709C57.5021 35.2235 57.8206 35.9492 57.1144 35.9086C56.7813 36.4433 56.2479 36.3899 55.7376 36.3535C55.6224 36.7113 55.5508 37.0601 55.4004 37.3712C55.231 37.7216 54.6896 37.8206 54.1093 37.6549C53.9768 37.6172 53.8488 37.4884 53.7274 37.4991C52.7872 37.5812 52.7889 37.5882 52.3933 36.8468C52.1957 36.4769 51.9571 36.1236 51.8039 35.7363C51.6175 35.2641 51.3276 34.9692 50.8508 34.7654C50.1429 34.4626 49.6832 33.8488 49.561 33.1186C49.4504 32.4575 49.7598 31.8511 50.35 31.3748C50.6425 31.7567 50.9341 32.1373 51.3429 32.6708C51.3429 32.1249 51.3371 31.7575 51.3445 31.3905C51.352 31.0256 51.3918 31.1002 51.9692 30.84C52.3817 30.6541 52.9794 30.8794 53.2167 30.307C53.6243 30.2912 54.0315 30.2763 54.439 30.2606C55.1916 30.2307 55.8593 30.3128 56.2102 31.1494C56.3493 31.4808 56.6828 31.731 56.9466 32.04Z" fill="black"/>
<path fill-rule="evenodd" clip-rule="evenodd" d="M28.7326 89.4749C28.1482 89.4584 27.5952 89.3006 27.3128 89.9484C26.8356 89.3196 26.7793 88.8735 27.2651 88.374C27.6006 88.0294 27.8218 87.599 28.2493 87.3012C28.6233 87.0403 28.7608 86.4633 29.0831 86.0959C29.3307 85.8134 29.7027 85.6394 30.0196 85.4178C30.1186 85.5144 30.2254 85.6196 30.394 85.7848C30.2151 85.912 30.0394 86.0371 29.8634 86.1618C29.8829 86.2069 29.9028 86.252 29.9222 86.2972C30.1799 86.2566 30.4371 86.216 30.7266 86.1705C30.8036 86.286 30.8931 86.5826 31.0849 86.6824C32.2368 87.2822 32.972 88.2833 33.672 89.3109C33.9019 89.6481 33.981 90.0842 34.1657 90.4574C34.6217 91.3799 34.7394 91.5501 34.6006 92.3884C34.5004 92.9944 34.3898 93.6406 33.9139 94.1343C33.7258 94.329 33.5254 94.6102 33.5154 94.8596C33.4906 95.4891 33.1447 95.5898 32.6361 95.5575C32.494 95.5484 32.3436 95.5666 32.2053 95.6039C31.3181 95.8425 31.2265 95.8176 30.7842 95.1375C30.1289 94.1306 29.8158 92.9791 29.4347 91.8599C29.1655 91.0692 28.96 90.2561 28.7326 89.4749Z" fill="black"/>
<path fill-rule="evenodd" clip-rule="evenodd" d="M14.3682 77.0821C13.7407 76.7259 13.1053 76.414 12.5938 75.8983C11.6407 74.9357 10.6176 74.034 9.73828 73.0084C8.81379 71.9303 7.83503 70.8674 7.2771 69.6033C7.33592 69.1042 7.98621 69.6344 7.99864 69.0454C8.00237 68.8772 8.4145 68.7148 8.64314 68.5554C9.21059 68.1594 9.52745 68.0931 9.94083 68.533C10.3488 68.9675 10.8206 69.1232 11.3545 69.2363C12.1792 69.4111 12.7483 70.0444 13.4541 70.4342C14.2092 70.8509 14.7472 71.5219 15.3607 72.1047C15.6783 72.4062 16.0731 72.6377 16.346 72.9716C16.6206 73.3075 16.8729 73.7113 16.9702 74.1243C17.0291 74.3757 16.8402 74.7551 16.648 74.9792C16.4107 75.2555 16.2984 75.6544 15.883 75.7881C15.6427 75.8652 15.6767 76.1336 15.6299 76.3548C15.576 76.6087 15.5052 76.9177 15.0645 76.5987C14.7563 76.3763 14.497 76.6919 14.3682 77.0821Z" fill="black"/>
<path fill-rule="evenodd" clip-rule="evenodd" d="M59.845 70.5486C58.5577 70.0185 58.0043 69.0327 57.4542 68.0746C56.9709 67.2325 56.5302 66.3557 56.1706 65.454C55.8123 64.5535 55.1873 63.7002 55.4661 62.567C56.2804 63.1344 56.2129 64.2192 56.9949 64.9445C56.8516 63.7972 56.2564 62.9108 55.9594 61.7021C56.3703 61.9275 56.5194 62.0091 56.7016 62.1089C56.7368 61.9121 56.7737 61.7059 56.8102 61.5004C57.1506 61.4358 57.4865 61.372 57.8834 61.2966C57.9886 61.4648 58.1265 61.7133 58.2905 61.9436C58.93 62.8395 58.9338 62.8354 60.0952 63.2483C60.2248 63.2947 60.3462 63.3701 60.4638 63.4447C61.3635 64.013 62.1823 64.6533 62.6773 65.6412C62.8604 66.0065 63.1097 66.6775 63.0986 67.0665C63.0961 67.1576 63.1723 67.2644 63.2386 67.3415C63.4076 67.5374 63.3313 67.7043 63.1565 67.8033C62.6491 68.0895 62.4292 68.6528 61.9786 68.99C61.7864 69.1337 61.752 69.3251 61.7172 69.5624C61.6691 69.8855 61.0354 70.3043 60.7405 70.2363C60.5578 70.1941 60.4398 69.8586 60.1909 70.1059C60.0604 70.2359 59.961 70.3975 59.845 70.5486Z" fill="black"/>
<path fill-rule="evenodd" clip-rule="evenodd" d="M23.2642 44.2239C23.067 44.2566 22.8604 44.2906 22.575 44.3378C22.6876 44.549 22.768 44.699 22.8521 44.8564C22.3157 45.3928 21.7573 45.9511 21.1816 46.5273C21.0888 46.5273 20.9753 46.5103 20.8685 46.5298C19.6014 46.7642 18.7577 46.0451 18.054 45.1782C17.5043 44.501 17.0317 43.755 16.6639 42.9411C16.4344 42.4329 16.2294 41.9648 16.3934 41.2744C16.7778 42.1193 17.1204 42.8715 17.4629 43.6241C17.5238 43.6042 17.5847 43.5848 17.646 43.5649C17.6182 43.4216 17.6141 43.2679 17.5586 43.1362C17.3295 42.5919 17.069 42.0601 16.8532 41.5113C16.7575 41.2682 16.5525 40.9654 17.0748 40.8523C17.2359 40.8175 17.3304 40.47 17.4534 40.2641C17.5611 40.0835 17.6654 39.9009 17.7508 39.7551C18.2789 39.7066 18.2839 40.1684 18.6131 40.359C18.5365 40.0682 18.4599 39.7774 18.3588 39.3947C18.5278 39.2609 18.7536 39.082 18.9793 38.9027C19.1218 39.0443 19.3107 39.27 19.4859 38.8538C19.676 38.404 19.9568 38.2287 20.412 38.5241C20.4534 38.551 20.5392 38.5717 20.5665 38.5493C21.0938 38.1148 21.4044 38.5477 21.6484 38.8799C22.2308 39.6739 22.505 40.6274 22.8537 41.5345C22.9357 41.7474 23.1143 42.2473 22.5137 42.2713C22.4797 42.2726 22.4536 42.4594 22.4242 42.5596C22.5493 42.5899 22.7415 42.6868 22.7891 42.6387C23.1259 42.3012 23.3073 42.7419 23.2741 42.8193C23.0716 43.2953 23.5409 43.755 23.2642 44.2239Z" fill="black"/>
<path fill-rule="evenodd" clip-rule="evenodd" d="M19.1738 20.1193C19.3064 20.2519 19.4393 20.3848 19.6411 20.5861C19.6779 20.2668 19.7086 20.0034 19.7421 19.7159C20.2069 19.6186 20.6861 19.496 21.1728 19.4239C21.4669 19.3804 21.7775 19.3816 22.0708 19.4268C22.2944 19.4616 22.1188 19.8783 22.5359 19.9147C22.8055 19.9383 23.0127 20.3964 23.2044 20.7154C23.3602 20.9743 23.127 21.5347 23.7184 21.5011C23.7387 21.8677 23.759 22.2347 23.7802 22.6012C23.7818 22.6369 23.7901 22.6721 23.7955 22.7077L25.4738 24.386C25.6536 24.386 25.8441 24.3628 26.026 24.3914C26.3064 24.4366 26.6083 24.7145 26.4646 24.8868C26.1448 25.2699 26.7181 25.5346 26.4907 25.8473C25.6171 26.1091 25.3417 26.1381 24.6309 26.0138C24.809 26.3986 24.964 26.7341 25.1586 27.1558C25.0451 27.2647 24.8956 27.5302 24.7482 27.5294C23.8174 27.5224 22.8379 27.7585 22.0082 27.0978C21.7833 26.9185 21.5116 26.778 21.3368 26.5589C20.9379 26.0594 20.5809 25.5263 20.2168 24.9995C20.0374 24.7398 19.8842 24.4614 19.7119 24.1963C19.4451 23.7859 19.5242 23.1944 19.0351 22.9007C19.1092 22.4028 18.8284 22.0263 18.649 21.5968C18.4051 21.0132 18.5563 20.4548 19.1738 20.1193Z" fill="black"/>
<path fill-rule="evenodd" clip-rule="evenodd" d="M3.67192 45.03C3.67192 44.9177 3.645 44.7616 3.68145 44.6216C3.70589 44.528 3.86618 44.4642 3.88027 44.3743C3.89559 44.2761 3.78044 44.1635 3.7792 44.0566C3.77837 43.9617 3.91175 43.8454 3.88565 43.7754C3.83802 43.6465 3.73115 43.5273 3.62139 43.4378C3.54849 43.3781 3.42713 43.3773 3.27719 43.3367C3.3476 43.5815 3.40435 43.7787 3.46151 43.9762C3.06263 43.7331 2.61944 43.5393 2.81453 42.9532C2.97938 43.0236 3.14133 43.0936 3.34222 43.1797C3.40683 42.4744 2.75281 42.8413 2.50098 42.5075C2.86962 42.551 3.11524 42.2971 3.48595 42.3464C3.65784 42.3691 3.88151 42.0038 4.14494 41.7545C4.51068 42.0531 4.92074 42.3874 5.40038 42.7788C5.44719 42.4926 5.48074 42.2888 5.52133 42.0407C6.06352 41.9359 6.61938 41.8286 7.18145 41.7201C7.47015 42.0887 7.69589 42.4251 7.97092 42.7146C8.2095 42.9648 8.53754 43.1317 8.76743 43.3881C9.41607 44.1121 9.71015 45.0262 9.97689 45.9304C10.0726 46.2539 10.1778 46.7659 9.55938 46.8525C9.56228 47.4464 8.93601 47.5351 8.65352 47.9116C8.29938 48.3829 7.67311 48.4641 6.99713 48.1912C5.98482 47.7823 5.31962 46.992 4.67305 46.2225C4.34956 45.8368 3.9863 45.4732 3.67192 45.03Z" fill="black"/>
<path fill-rule="evenodd" clip-rule="evenodd" d="M22.2878 59.6789C22.4701 59.741 22.6461 59.8007 22.8478 59.8694C22.8888 58.9193 21.9068 58.6529 21.7701 57.7781C21.9689 57.8659 22.1308 57.9032 22.2481 57.9964C22.4361 58.1464 22.5943 58.3327 22.8288 58.5672C22.7488 58.0908 22.6958 57.9815 22.4241 57.6555C23.0181 56.9373 23.0181 56.9373 23.7193 56.9348C24.1049 57.3693 24.4342 57.9417 24.9283 58.2433C25.4739 58.5767 25.6346 59.1458 26.0368 59.5538C26.4211 59.9444 26.6763 60.4762 26.931 60.9753C27.071 61.2487 27.1899 61.5979 27.1443 61.8853C27.0863 62.2486 26.9314 62.7825 26.6746 62.8856C26.2521 63.0559 26.3466 63.3545 26.2136 63.6113C26.0314 63.9622 25.782 64.3035 25.3247 64.3788C25.0576 64.4227 24.7395 64.6265 24.5436 64.5383C24.0668 64.3233 23.5743 64.0495 23.2218 63.6739C22.5566 62.9648 21.9618 62.1848 21.3927 61.3945C21.2498 61.1965 21.3157 60.8486 21.2734 60.4572C21.4631 60.6104 21.5385 60.6709 21.6984 60.7997C21.6156 60.2236 22.1192 60.026 22.2878 59.6789Z" fill="black"/>
<path fill-rule="evenodd" clip-rule="evenodd" d="M16.349 101.108C16.0404 100.939 15.8917 100.857 15.7475 100.777C15.4936 101.695 15.4307 101.743 14.6806 101.412C14.8785 101.873 15.0372 102.242 15.2099 102.643C15.014 102.756 14.8135 102.873 14.611 102.991C14.2448 102.625 13.8733 102.253 13.4674 101.847C13.223 102.397 13.8956 102.652 13.8294 103.183C13.2259 103.267 12.8759 102.857 12.5284 102.479C12.3387 102.273 12.2359 101.985 12.0404 101.786C11.169 100.901 10.3861 99.9449 9.6563 98.9426C9.59085 98.8527 9.50014 98.7806 9.41896 98.7027C8.97908 98.2832 8.51807 97.8776 8.48535 97.1938C8.9244 96.925 9.1576 97.3392 9.45624 97.5956C9.75985 97.0932 9.05736 97.0261 9.08884 96.6558C9.11577 96.2092 9.96529 96.7788 9.74949 96.049H10.9726C11.3226 96.2954 11.6776 96.5394 12.0255 96.7924C12.3747 97.0463 12.6054 97.4113 13.0329 97.6179C13.4479 97.8192 13.7229 98.2939 14.0883 98.6158C14.3264 98.8258 14.4776 99.1145 14.8583 99.2089C15.1337 99.2768 15.2807 99.6947 15.6991 99.6409C15.8155 99.6256 16.0255 99.836 16.0847 99.9855C16.1978 100.27 16.2326 100.586 16.349 101.108Z" fill="black"/>
<path fill-rule="evenodd" clip-rule="evenodd" d="M8.58752 25.5581C8.97604 25.5838 9.24444 25.3829 9.59983 25.6393C9.41924 25.7014 9.28835 25.7466 9.14545 25.7959C9.27882 26.2486 9.42711 26.6984 9.53604 27.1574C9.56379 27.275 9.50208 27.5074 9.42048 27.5417C8.96734 27.7331 8.83024 28.2206 8.47734 28.4878C8.32119 28.6062 8.08717 28.6448 7.88297 28.6679C7.78066 28.6791 7.66012 28.5246 7.55782 28.5354C7.43314 28.5487 7.31882 28.6576 7.18752 28.7321C6.99367 28.0471 7.00362 28.0193 6.24024 27.7592C5.78338 27.6035 5.68853 27.1545 5.36462 26.872C5.29214 27.0265 5.22214 27.1756 5.14385 27.3429C5.02995 27.2236 4.83817 27.1151 4.83859 27.0074C4.84439 25.6617 4.84314 25.6314 4.22888 24.825C3.88261 25.4335 4.54616 25.7855 4.5822 26.3807C4.41776 26.355 4.17214 26.3741 4.14356 26.3041C3.85486 25.6024 3.41498 24.9397 3.86604 24.0981C4.00604 23.8367 4.03131 23.6996 4.34569 23.6942C4.53953 23.6913 4.74788 23.5774 4.9206 23.4681C5.36835 23.1852 5.79953 22.877 6.27794 22.551C6.38728 22.7142 6.48835 22.8654 6.46391 22.8285C6.84125 23.0916 7.23474 22.3833 7.2977 23.1218C7.31592 23.3314 7.78439 22.8314 7.78439 23.3803C7.78439 23.5923 8.17415 23.8048 8.37007 24.0007C8.30007 24.1821 8.23379 24.3553 8.16711 24.5284C8.22261 24.5669 8.27811 24.6055 8.33403 24.644C8.4322 24.4572 8.53036 24.2704 8.65421 24.0355C8.85592 24.3785 8.97314 24.5769 9.12681 24.8374C8.95989 25.0603 8.77391 25.3092 8.58752 25.5581Z" fill="black"/>
<path fill-rule="evenodd" clip-rule="evenodd" d="M-0.286846 57.105C-0.0060173 57.1874 0.287237 57.2731 0.647592 57.3788C0.800432 57.0147 0.84558 56.6651 0.523332 56.34C0.919308 55.98 1.18274 56.5226 1.57085 56.4638C1.60688 56.2679 1.6454 56.0616 1.68268 55.8595C1.9867 55.5339 2.26091 56.1345 2.6283 55.8512C3.00398 55.5613 3.09883 56.1871 3.41818 56.2588C3.59753 56.2989 3.76528 56.4858 3.89327 56.6431C4.31741 57.1634 4.38369 57.8994 4.95487 58.3538C5.09156 58.4623 5.01866 58.8355 5.04931 59.1673C4.41599 58.8562 4.37747 59.8611 3.76736 59.6229C3.57972 59.9265 3.757 60.477 3.07067 60.5429C2.99818 60.4194 2.88469 60.226 2.72315 59.9501C2.58564 60.2372 2.51895 60.3763 2.45061 60.5197C2.06623 60.6108 1.8902 60.2794 1.76386 60.0686C1.34428 59.3665 0.800847 58.8293 0.0979472 58.4093C-0.334479 58.1508 -0.571816 57.7296 -0.286846 57.105Z" fill="black"/>
</svg>
