<svg width="559" height="485" viewBox="0 0 559 485" fill="none" xmlns="http://www.w3.org/2000/svg">
<g filter="url(#filter0_dddddd_0_369)">
<rect x="111" y="2" width="337" height="232.988" rx="10" fill="white"/>
</g>
<path d="M135.485 46.5761V34.2375H130.718V32.5969H141.979V34.2375H137.213V46.5761H135.485ZM146.436 46.8673C145.394 46.8673 144.494 46.6311 143.737 46.1587C142.986 45.6862 142.407 45.0326 141.999 44.1977C141.591 43.3628 141.388 42.405 141.388 41.3242C141.388 40.224 141.595 39.2597 142.009 38.4313C142.423 37.6028 143.009 36.9589 143.766 36.4994C144.523 36.0334 145.413 35.8004 146.436 35.8004C147.484 35.8004 148.387 36.0367 149.144 36.5091C149.901 36.9751 150.481 37.6255 150.882 38.4604C151.289 39.2888 151.493 40.2434 151.493 41.3242C151.493 42.4179 151.289 43.3822 150.882 44.2171C150.474 45.0455 149.892 45.6959 149.134 46.1684C148.377 46.6344 147.478 46.8673 146.436 46.8673ZM146.436 45.2267C147.523 45.2267 148.332 44.8643 148.863 44.1394C149.393 43.4146 149.659 42.4762 149.659 41.3242C149.659 40.1398 149.39 39.1982 148.853 38.4992C148.316 37.7938 147.51 37.4411 146.436 37.4411C145.704 37.4411 145.102 37.6061 144.63 37.9362C144.157 38.2662 143.805 38.7225 143.572 39.305C143.339 39.8874 143.222 40.5605 143.222 41.3242C143.222 42.5021 143.494 43.447 144.038 44.1589C144.581 44.8708 145.381 45.2267 146.436 45.2267ZM159.485 46.5761C158.863 46.6991 158.248 46.7476 157.64 46.7217C157.038 46.7023 156.501 46.5826 156.029 46.3625C155.556 46.136 155.197 45.7865 154.951 45.3141C154.744 44.8999 154.631 44.4825 154.611 44.0618C154.598 43.6346 154.592 43.1525 154.592 42.6153V33.1793H156.32V42.5377C156.32 42.9648 156.323 43.3305 156.33 43.6346C156.342 43.9388 156.41 44.2009 156.533 44.421C156.766 44.8352 157.135 45.0779 157.64 45.1491C158.151 45.2203 158.766 45.2008 159.485 45.0908V46.5761ZM152.466 37.5187V36.0917H159.485V37.5187H152.466ZM164.593 46.8673C163.81 46.8673 163.153 46.725 162.623 46.4402C162.099 46.149 161.701 45.7671 161.429 45.2947C161.163 44.8222 161.031 44.3045 161.031 43.7414C161.031 43.1913 161.134 42.7156 161.341 42.3144C161.555 41.9066 161.853 41.5701 162.234 41.3048C162.616 41.0329 163.073 40.8194 163.603 40.664C164.102 40.5281 164.658 40.4116 165.273 40.3146C165.894 40.211 166.522 40.1172 167.156 40.033C167.791 39.9489 168.383 39.868 168.933 39.7903L168.312 40.1495C168.331 39.2176 168.143 38.5283 167.748 38.0818C167.36 37.6352 166.687 37.4119 165.729 37.4119C165.095 37.4119 164.538 37.5575 164.06 37.8488C163.587 38.1335 163.254 38.5995 163.06 39.2467L161.419 38.7516C161.671 37.8326 162.16 37.111 162.885 36.5868C163.61 36.0625 164.564 35.8004 165.749 35.8004C166.7 35.8004 167.516 35.9719 168.195 36.3149C168.881 36.6515 169.373 37.1628 169.671 37.8488C169.819 38.1724 169.913 38.5251 169.952 38.9069C169.991 39.2823 170.01 39.6771 170.01 40.0913V46.5761H168.477V44.0618L168.836 44.2948C168.441 45.1426 167.888 45.7833 167.176 46.2169C166.47 46.6505 165.61 46.8673 164.593 46.8673ZM164.856 45.4209C165.477 45.4209 166.014 45.3109 166.467 45.0908C166.927 44.8643 167.295 44.5698 167.574 44.2074C167.852 43.8385 168.033 43.4372 168.117 43.0036C168.214 42.68 168.266 42.3208 168.273 41.9261C168.286 41.5248 168.292 41.2174 168.292 41.0038L168.894 41.2659C168.331 41.3436 167.778 41.418 167.234 41.4892C166.69 41.5604 166.176 41.6381 165.69 41.7222C165.205 41.7999 164.768 41.8937 164.38 42.0037C164.095 42.0943 163.827 42.2108 163.574 42.3532C163.328 42.4956 163.128 42.68 162.972 42.9066C162.823 43.1266 162.749 43.4017 162.749 43.7317C162.749 44.0165 162.82 44.2883 162.963 44.5472C163.111 44.8061 163.338 45.0164 163.642 45.1782C163.953 45.34 164.357 45.4209 164.856 45.4209ZM172.729 46.5761V32.3056H174.457V46.5761H172.729ZM181.256 46.5761V32.5969H186.702C187.537 32.5969 188.249 32.7684 188.838 33.1114C189.434 33.4544 189.887 33.9074 190.197 34.4705C190.514 35.027 190.673 35.6289 190.673 36.2761C190.673 37.0333 190.479 37.6967 190.09 38.2662C189.702 38.8357 189.178 39.2273 188.518 39.4409L188.498 38.9652C189.398 39.2046 190.097 39.6447 190.595 40.2854C191.094 40.9262 191.343 41.6898 191.343 42.5765C191.343 43.3919 191.174 44.0974 190.838 44.6928C190.508 45.2882 190.029 45.7509 189.401 46.081C188.78 46.4111 188.042 46.5761 187.188 46.5761H181.256ZM183.004 44.9258H186.858C187.375 44.9258 187.838 44.8319 188.246 44.6443C188.654 44.4501 188.974 44.1783 189.207 43.8288C189.446 43.4793 189.566 43.0586 189.566 42.5668C189.566 42.0943 189.459 41.6704 189.246 41.2951C189.039 40.9197 188.744 40.622 188.362 40.4019C187.987 40.1754 187.55 40.0622 187.052 40.0622H183.004V44.9258ZM183.004 38.4313H186.683C187.097 38.4313 187.469 38.3439 187.799 38.1691C188.136 37.9879 188.401 37.7355 188.595 37.4119C188.796 37.0883 188.896 36.7097 188.896 36.2761C188.896 35.6742 188.693 35.1824 188.285 34.8005C187.877 34.4187 187.343 34.2278 186.683 34.2278H183.004V38.4313ZM196.258 46.8673C195.475 46.8673 194.818 46.725 194.287 46.4402C193.763 46.149 193.365 45.7671 193.093 45.2947C192.828 44.8222 192.695 44.3045 192.695 43.7414C192.695 43.1913 192.798 42.7156 193.006 42.3144C193.219 41.9066 193.517 41.5701 193.899 41.3048C194.28 41.0329 194.737 40.8194 195.267 40.664C195.766 40.5281 196.322 40.4116 196.937 40.3146C197.558 40.211 198.186 40.1172 198.82 40.033C199.455 39.9489 200.047 39.868 200.597 39.7903L199.976 40.1495C199.995 39.2176 199.807 38.5283 199.413 38.0818C199.024 37.6352 198.351 37.4119 197.393 37.4119C196.759 37.4119 196.203 37.5575 195.724 37.8488C195.251 38.1335 194.918 38.5995 194.724 39.2467L193.083 38.7516C193.336 37.8326 193.824 37.111 194.549 36.5868C195.274 36.0625 196.229 35.8004 197.413 35.8004C198.364 35.8004 199.18 35.9719 199.859 36.3149C200.545 36.6515 201.037 37.1628 201.335 37.8488C201.484 38.1724 201.578 38.5251 201.616 38.9069C201.655 39.2823 201.675 39.6771 201.675 40.0913V46.5761H200.141V44.0618L200.5 44.2948C200.105 45.1426 199.552 45.7833 198.84 46.2169C198.134 46.6505 197.274 46.8673 196.258 46.8673ZM196.52 45.4209C197.141 45.4209 197.678 45.3109 198.131 45.0908C198.591 44.8643 198.96 44.5698 199.238 44.2074C199.516 43.8385 199.697 43.4372 199.782 43.0036C199.879 42.68 199.93 42.3208 199.937 41.9261C199.95 41.5248 199.956 41.2174 199.956 41.0038L200.558 41.2659C199.995 41.3436 199.442 41.418 198.898 41.4892C198.355 41.5604 197.84 41.6381 197.355 41.7222C196.869 41.7999 196.432 41.8937 196.044 42.0037C195.759 42.0943 195.491 42.2108 195.238 42.3532C194.992 42.4956 194.792 42.68 194.636 42.9066C194.488 43.1266 194.413 43.4017 194.413 43.7317C194.413 44.0165 194.484 44.2883 194.627 44.5472C194.776 44.8061 195.002 45.0164 195.306 45.1782C195.617 45.34 196.021 45.4209 196.52 45.4209ZM204.393 46.5761V32.3056H206.121V46.5761H204.393ZM212.014 46.8673C211.231 46.8673 210.574 46.725 210.043 46.4402C209.519 46.149 209.121 45.7671 208.849 45.2947C208.584 44.8222 208.451 44.3045 208.451 43.7414C208.451 43.1913 208.555 42.7156 208.762 42.3144C208.975 41.9066 209.273 41.5701 209.655 41.3048C210.037 41.0329 210.493 40.8194 211.024 40.664C211.522 40.5281 212.079 40.4116 212.693 40.3146C213.315 40.211 213.942 40.1172 214.577 40.033C215.211 39.9489 215.803 39.868 216.353 39.7903L215.732 40.1495C215.751 39.2176 215.564 38.5283 215.169 38.0818C214.781 37.6352 214.108 37.4119 213.15 37.4119C212.515 37.4119 211.959 37.5575 211.48 37.8488C211.007 38.1335 210.674 38.5995 210.48 39.2467L208.839 38.7516C209.092 37.8326 209.58 37.111 210.305 36.5868C211.03 36.0625 211.985 35.8004 213.169 35.8004C214.12 35.8004 214.936 35.9719 215.615 36.3149C216.301 36.6515 216.793 37.1628 217.091 37.8488C217.24 38.1724 217.334 38.5251 217.373 38.9069C217.411 39.2823 217.431 39.6771 217.431 40.0913V46.5761H215.897V44.0618L216.256 44.2948C215.861 45.1426 215.308 45.7833 214.596 46.2169C213.891 46.6505 213.03 46.8673 212.014 46.8673ZM212.276 45.4209C212.897 45.4209 213.434 45.3109 213.887 45.0908C214.347 44.8643 214.716 44.5698 214.994 44.2074C215.272 43.8385 215.454 43.4372 215.538 43.0036C215.635 42.68 215.687 42.3208 215.693 41.9261C215.706 41.5248 215.713 41.2174 215.713 41.0038L216.314 41.2659C215.751 41.3436 215.198 41.418 214.654 41.4892C214.111 41.5604 213.596 41.6381 213.111 41.7222C212.625 41.7999 212.189 41.8937 211.8 42.0037C211.516 42.0943 211.247 42.2108 210.995 42.3532C210.749 42.4956 210.548 42.68 210.393 42.9066C210.244 43.1266 210.169 43.4017 210.169 43.7317C210.169 44.0165 210.241 44.2883 210.383 44.5472C210.532 44.8061 210.758 45.0164 211.062 45.1782C211.373 45.34 211.778 45.4209 212.276 45.4209ZM227.42 46.5761V41.3242C227.42 40.8258 227.375 40.3469 227.284 39.8874C227.2 39.4279 227.048 39.017 226.828 38.6545C226.614 38.2856 226.323 37.9944 225.954 37.7808C225.592 37.5673 225.132 37.4605 224.576 37.4605C224.142 37.4605 223.747 37.5349 223.391 37.6837C223.042 37.8261 222.741 38.0462 222.489 38.3439C222.236 38.6416 222.039 39.017 221.896 39.47C221.761 39.9165 221.693 40.444 221.693 41.0524L220.557 40.7029C220.557 39.6868 220.738 38.8163 221.1 38.0915C221.469 37.3602 221.984 36.8003 222.644 36.412C223.311 36.0172 224.094 35.8198 224.993 35.8198C225.673 35.8198 226.252 35.9266 226.731 36.1402C227.21 36.3538 227.608 36.6385 227.925 36.9945C228.242 37.344 228.491 37.7388 228.672 38.1788C228.854 38.6125 228.98 39.0558 229.051 39.5088C229.129 39.9554 229.168 40.3793 229.168 40.7805V46.5761H227.42ZM219.945 46.5761V36.0917H221.498V38.8972H221.693V46.5761H219.945ZM236.014 46.8673C234.952 46.8673 234.05 46.6311 233.305 46.1587C232.567 45.6798 232.004 45.0229 231.616 44.188C231.228 43.3531 231.027 42.4017 231.014 41.3339C231.027 40.2401 231.231 39.2791 231.626 38.4507C232.027 37.6158 232.6 36.9654 233.344 36.4994C234.088 36.0334 234.985 35.8004 236.033 35.8004C237.14 35.8004 238.091 36.0723 238.887 36.6159C239.69 37.1595 240.227 37.9038 240.499 38.8487L238.79 39.3632C238.57 38.7548 238.211 38.2824 237.713 37.9459C237.221 37.6093 236.654 37.4411 236.014 37.4411C235.295 37.4411 234.703 37.6093 234.237 37.9459C233.771 38.2759 233.425 38.7354 233.198 39.3244C232.972 39.9068 232.855 40.5767 232.849 41.3339C232.862 42.4988 233.13 43.4405 233.655 44.1589C234.185 44.8708 234.972 45.2267 236.014 45.2267C236.7 45.2267 237.269 45.0714 237.722 44.7607C238.175 44.4436 238.518 43.9874 238.751 43.3919L240.499 43.8482C240.136 44.8255 239.57 45.573 238.8 46.0907C238.03 46.6085 237.101 46.8673 236.014 46.8673ZM246.739 46.8673C245.71 46.8673 244.81 46.6408 244.04 46.1878C243.276 45.7283 242.681 45.0908 242.254 44.2754C241.827 43.4534 241.613 42.4956 241.613 41.4018C241.613 40.2563 241.823 39.2661 242.244 38.4313C242.665 37.5899 243.251 36.9427 244.001 36.4897C244.758 36.0302 245.645 35.8004 246.661 35.8004C247.716 35.8004 248.612 36.0431 249.35 36.5285C250.095 37.0139 250.651 37.7064 251.02 38.606C251.395 39.5056 251.557 40.5767 251.505 41.8193H249.758V41.198C249.739 39.9101 249.476 38.949 248.972 38.3148C248.467 37.674 247.716 37.3537 246.719 37.3537C245.652 37.3537 244.839 37.6967 244.283 38.3827C243.726 39.0687 243.448 40.0525 243.448 41.3339C243.448 42.57 243.726 43.5279 244.283 44.2074C244.839 44.887 245.632 45.2267 246.661 45.2267C247.354 45.2267 247.956 45.0682 248.467 44.751C248.978 44.4339 249.379 43.9777 249.671 43.3822L251.331 43.955C250.923 44.8805 250.308 45.5989 249.486 46.1101C248.671 46.6149 247.755 46.8673 246.739 46.8673ZM242.865 41.8193V40.4311H250.612V41.8193H242.865Z" fill="black"/>
<path d="M138.925 85.4547V82.8253H141.599V85.4547H138.925ZM138.925 67.7033V65.0738H141.599V67.7033H138.925ZM140.323 83.5797C139.199 83.5797 138.193 83.3726 137.306 82.9584C136.418 82.5442 135.689 81.9599 135.12 81.2055C134.558 80.451 134.199 79.5561 134.044 78.5206L136.684 78.099C136.891 79.0087 137.335 79.7336 138.016 80.2735C138.703 80.8061 139.524 81.0723 140.479 81.0723C141.396 81.0723 142.15 80.8578 142.742 80.4288C143.334 79.9925 143.63 79.4414 143.63 78.7757C143.63 78.3098 143.489 77.9325 143.208 77.6441C142.927 77.3482 142.476 77.1041 141.854 76.9118L138.005 75.7136C135.763 75.0184 134.643 73.6574 134.643 71.6308C134.643 70.684 134.868 69.8593 135.32 69.1567C135.778 68.4466 136.422 67.903 137.25 67.5258C138.078 67.1412 139.055 66.9525 140.179 66.9599C141.222 66.9673 142.15 67.1559 142.964 67.5258C143.785 67.8956 144.465 68.4281 145.005 69.1234C145.553 69.8187 145.941 70.6545 146.17 71.6308L143.43 72.13C143.326 71.6049 143.123 71.1426 142.82 70.7432C142.516 70.3438 142.135 70.0332 141.677 69.8113C141.218 69.5894 140.708 69.471 140.146 69.4562C139.606 69.4488 139.121 69.5339 138.692 69.7114C138.263 69.8815 137.923 70.1256 137.672 70.4437C137.42 70.7543 137.294 71.1056 137.294 71.4977C137.294 71.934 137.468 72.3076 137.816 72.6182C138.171 72.9289 138.729 73.1951 139.491 73.417L142.365 74.2491C143.748 74.6485 144.743 75.1922 145.349 75.88C145.963 76.5605 146.27 77.4666 146.27 78.5982C146.27 79.5894 146.022 80.4584 145.527 81.2055C145.031 81.9525 144.336 82.5368 143.441 82.9584C142.546 83.3726 141.507 83.5797 140.323 83.5797ZM155.311 83.2469V80.6064H148.232V78.1101L153.347 67.2706H156.398L151.283 78.1101H155.311V73.9496H158.018V78.1101H159.515V80.6064H158.018V83.2469H155.311ZM161.521 86.076L161.676 84.9222C162.016 84.9518 162.286 84.8926 162.486 84.7447C162.686 84.6041 162.819 84.4007 162.885 84.1345C162.959 83.8756 162.978 83.5797 162.941 83.2469H161.521V80.3956H164.261V83.3578C164.261 84.3268 164.032 85.059 163.573 85.5546C163.115 86.0501 162.43 86.224 161.521 86.076ZM168.038 83.2247V80.8948L174.872 74.8039C175.405 74.3305 175.775 73.883 175.982 73.4614C176.189 73.0398 176.292 72.633 176.292 72.241C176.292 71.7085 176.178 71.2351 175.948 70.8209C175.719 70.3993 175.401 70.0664 174.994 69.8224C174.595 69.5783 174.133 69.4562 173.607 69.4562C173.053 69.4562 172.561 69.5857 172.132 69.8445C171.71 70.096 171.381 70.4326 171.144 70.8542C170.908 71.2758 170.797 71.7306 170.812 72.2188H168.06C168.06 71.1537 168.297 70.2255 168.77 69.434C169.251 68.6426 169.909 68.0287 170.745 67.5923C171.588 67.1559 172.561 66.9378 173.663 66.9378C174.684 66.9378 175.601 67.167 176.414 67.6256C177.228 68.0768 177.868 68.7055 178.334 69.5117C178.8 70.3105 179.033 71.2314 179.033 72.2743C179.033 73.0361 178.929 73.6759 178.722 74.1937C178.515 74.7114 178.204 75.1885 177.79 75.6249C177.383 76.0613 176.877 76.5457 176.27 77.0783L171.422 81.3719L171.178 80.7062H179.033V83.2247H168.038ZM187.447 83.5797C186.315 83.5797 185.317 83.3393 184.451 82.8586C183.586 82.3704 182.909 81.6936 182.421 80.8283C181.94 79.9629 181.7 78.9644 181.7 77.8327V72.6848C181.7 71.5531 181.94 70.5546 182.421 69.6892C182.909 68.8238 183.586 68.1508 184.451 67.67C185.317 67.1818 186.315 66.9378 187.447 66.9378C188.579 66.9378 189.573 67.1818 190.431 67.67C191.297 68.1508 191.974 68.8238 192.462 69.6892C192.95 70.5546 193.194 71.5531 193.194 72.6848V77.8327C193.194 78.9644 192.95 79.9629 192.462 80.8283C191.974 81.6936 191.297 82.3704 190.431 82.8586C189.573 83.3393 188.579 83.5797 187.447 83.5797ZM187.447 81.0391C188.009 81.0391 188.519 80.9059 188.978 80.6396C189.437 80.366 189.799 80.0036 190.065 79.5524C190.332 79.0938 190.465 78.5834 190.465 78.0213V72.4851C190.465 71.9156 190.332 71.4052 190.065 70.954C189.799 70.4954 189.437 70.133 188.978 69.8667C188.519 69.5931 188.009 69.4562 187.447 69.4562C186.885 69.4562 186.374 69.5931 185.916 69.8667C185.457 70.133 185.095 70.4954 184.829 70.954C184.562 71.4052 184.429 71.9156 184.429 72.4851V78.0213C184.429 78.5834 184.562 79.0938 184.829 79.5524C185.095 80.0036 185.457 80.366 185.916 80.6396C186.374 80.9059 186.885 81.0391 187.447 81.0391ZM202.052 83.5797C200.92 83.5797 199.922 83.3393 199.056 82.8586C198.191 82.3704 197.514 81.6936 197.026 80.8283C196.545 79.9629 196.305 78.9644 196.305 77.8327V72.6848C196.305 71.5531 196.545 70.5546 197.026 69.6892C197.514 68.8238 198.191 68.1508 199.056 67.67C199.922 67.1818 200.92 66.9378 202.052 66.9378C203.184 66.9378 204.179 67.1818 205.037 67.67C205.902 68.1508 206.579 68.8238 207.067 69.6892C207.555 70.5546 207.799 71.5531 207.799 72.6848V77.8327C207.799 78.9644 207.555 79.9629 207.067 80.8283C206.579 81.6936 205.902 82.3704 205.037 82.8586C204.179 83.3393 203.184 83.5797 202.052 83.5797ZM202.052 81.0391C202.614 81.0391 203.125 80.9059 203.583 80.6396C204.042 80.366 204.404 80.0036 204.67 79.5524C204.937 79.0938 205.07 78.5834 205.07 78.0213V72.4851C205.07 71.9156 204.937 71.4052 204.67 70.954C204.404 70.4954 204.042 70.133 203.583 69.8667C203.125 69.5931 202.614 69.4562 202.052 69.4562C201.49 69.4562 200.98 69.5931 200.521 69.8667C200.062 70.133 199.7 70.4954 199.434 70.954C199.167 71.4052 199.034 71.9156 199.034 72.4851V78.0213C199.034 78.5834 199.167 79.0938 199.434 79.5524C199.7 80.0036 200.062 80.366 200.521 80.6396C200.98 80.9059 201.49 81.0391 202.052 81.0391Z" fill="black"/>
<path d="M218.151 78.245V74.8015H214.707V73.4764H218.151V70.0419H219.476V73.4764H222.911V74.8015H219.476V78.245H218.151ZM227.52 80.6338V69.4289L225.078 70.9072V69.1134L227.52 67.653H229.152V80.6338H227.52ZM238.189 80.6338V78.245H232.221V76.7215L236.503 67.653H238.324L234.042 76.7215H238.189V73.0707H239.812V76.7215H241.164V78.245H239.812V80.6338H238.189ZM244.764 80.6338L243.682 79.5521L255.599 67.653L256.681 68.7348L244.764 80.6338ZM253.977 80.9042C253.382 80.9042 252.838 80.76 252.345 80.4715C251.858 80.1771 251.468 79.7864 251.173 79.2997C250.879 78.8069 250.732 78.26 250.732 77.659C250.732 77.0701 250.882 76.5292 251.182 76.0364C251.483 75.5437 251.88 75.15 252.372 74.8556C252.865 74.5611 253.4 74.4139 253.977 74.4139C254.572 74.4139 255.116 74.5611 255.608 74.8556C256.101 75.144 256.492 75.5346 256.78 76.0274C257.075 76.5142 257.222 77.0581 257.222 77.659C257.222 78.26 257.075 78.8069 256.78 79.2997C256.492 79.7864 256.101 80.1771 255.608 80.4715C255.116 80.76 254.572 80.9042 253.977 80.9042ZM253.977 79.489C254.307 79.489 254.611 79.4048 254.887 79.2366C255.17 79.0683 255.392 78.8459 255.554 78.5695C255.723 78.293 255.807 77.9896 255.807 77.659C255.807 77.3285 255.723 77.025 255.554 76.7486C255.392 76.4661 255.17 76.2438 254.887 76.0815C254.611 75.9132 254.307 75.8291 253.977 75.8291C253.646 75.8291 253.343 75.9132 253.066 76.0815C252.79 76.2438 252.568 76.4661 252.399 76.7486C252.231 77.025 252.147 77.3285 252.147 77.659C252.147 77.9896 252.231 78.293 252.399 78.5695C252.568 78.8459 252.79 79.0683 253.066 79.2366C253.343 79.4048 253.646 79.489 253.977 79.489ZM246.387 73.873C245.792 73.873 245.248 73.7288 244.755 73.4403C244.262 73.1458 243.869 72.7552 243.574 72.2684C243.286 71.7756 243.142 71.2288 243.142 70.6278C243.142 70.0389 243.292 69.498 243.592 69.0052C243.893 68.5124 244.289 68.1188 244.782 67.8243C245.275 67.5299 245.81 67.3826 246.387 67.3826C246.982 67.3826 247.523 67.5299 248.009 67.8243C248.502 68.1128 248.896 68.5034 249.19 68.9962C249.485 69.483 249.632 70.0268 249.632 70.6278C249.632 71.2288 249.485 71.7756 249.19 72.2684C248.896 72.7552 248.502 73.1458 248.009 73.4403C247.523 73.7288 246.982 73.873 246.387 73.873ZM246.387 72.4577C246.717 72.4577 247.021 72.3736 247.297 72.2053C247.58 72.0371 247.802 71.8147 247.964 71.5383C248.133 71.2618 248.217 70.9583 248.217 70.6278C248.217 70.2973 248.133 69.9938 247.964 69.7173C247.802 69.4349 247.58 69.2125 247.297 69.0503C247.021 68.882 246.717 68.7979 246.387 68.7979C246.056 68.7979 245.753 68.882 245.476 69.0503C245.2 69.2125 244.977 69.4349 244.809 69.7173C244.641 69.9938 244.557 70.2973 244.557 70.6278C244.557 70.9583 244.641 71.2618 244.809 71.5383C244.977 71.8147 245.2 72.0371 245.476 72.2053C245.753 72.3736 246.056 72.4577 246.387 72.4577Z" fill="#00E1F0"/>
<path d="M132.775 102.699H133.885V110.465H132.609V104.063L131.044 104.507L130.734 103.42L132.775 102.699ZM140.454 109.511C139.921 110.243 139.174 110.609 138.212 110.609C137.251 110.609 136.5 110.243 135.96 109.511C135.428 108.779 135.161 107.802 135.161 106.582C135.161 105.361 135.428 104.385 135.96 103.653C136.5 102.921 137.251 102.554 138.212 102.554C139.174 102.554 139.921 102.921 140.454 103.653C140.993 104.385 141.263 105.361 141.263 106.582C141.263 107.802 140.993 108.779 140.454 109.511ZM138.212 109.367C138.789 109.367 139.229 109.126 139.533 108.645C139.836 108.165 139.988 107.477 139.988 106.582C139.988 105.687 139.836 104.999 139.533 104.518C139.229 104.037 138.789 103.797 138.212 103.797C137.643 103.797 137.203 104.037 136.892 104.518C136.589 104.999 136.437 105.687 136.437 106.582C136.437 107.477 136.589 108.165 136.892 108.645C137.203 109.126 137.643 109.367 138.212 109.367ZM147.309 110.465H145.878L143.603 107.902V110.465H142.405V102.699H143.603V107.37L145.755 104.918H147.22L144.779 107.636L147.309 110.465Z" fill="#718EBF"/>
<path d="M143.064 134.23V135.417H142.176V136.815H140.889V135.417H137.073V134.23L139.747 129.049H141.133L138.46 134.23H140.889V132.21H142.176V134.23H143.064ZM148.856 136.815H147.425L145.15 134.252V136.815H143.952V129.049H145.15V133.719L147.303 131.267H148.767L146.327 133.986L148.856 136.815Z" fill="#718EBF"/>
<path d="M136.725 163.165V162.166L139.432 159.403C140.09 158.745 140.419 158.176 140.419 157.695C140.419 157.318 140.305 157.026 140.075 156.818C139.854 156.604 139.569 156.497 139.221 156.497C138.57 156.497 138.09 156.818 137.779 157.462L136.703 156.83C136.947 156.312 137.291 155.92 137.734 155.653C138.178 155.387 138.67 155.254 139.21 155.254C139.891 155.254 140.475 155.469 140.963 155.898C141.451 156.327 141.695 156.911 141.695 157.651C141.695 158.442 141.255 159.285 140.375 160.18L138.622 161.933H141.839V163.165H136.725ZM147.856 163.165H146.425L144.15 160.602V163.165H142.952V155.398H144.15V160.069L146.303 157.617H147.767L145.327 160.335L147.856 163.165Z" fill="#718EBF"/>
<path d="M145.871 189.947C145.339 190.679 144.592 191.045 143.63 191.045C142.668 191.045 141.918 190.679 141.378 189.947C140.845 189.215 140.579 188.238 140.579 187.018C140.579 185.798 140.845 184.821 141.378 184.089C141.918 183.357 142.668 182.991 143.63 182.991C144.592 182.991 145.339 183.357 145.871 184.089C146.411 184.821 146.681 185.798 146.681 187.018C146.681 188.238 146.411 189.215 145.871 189.947ZM143.63 189.803C144.207 189.803 144.647 189.562 144.95 189.082C145.254 188.601 145.405 187.913 145.405 187.018C145.405 186.123 145.254 185.435 144.95 184.954C144.647 184.474 144.207 184.233 143.63 184.233C143.06 184.233 142.62 184.474 142.31 184.954C142.007 185.435 141.855 186.123 141.855 187.018C141.855 187.913 142.007 188.601 142.31 189.082C142.62 189.562 143.06 189.803 143.63 189.803Z" fill="#718EBF"/>
<path d="M173.621 207.688C172.874 207.688 172.237 207.517 171.712 207.177C171.195 206.837 170.832 206.371 170.625 205.779L171.723 205.136C172.034 206.009 172.678 206.445 173.654 206.445C174.135 206.445 174.493 206.353 174.73 206.168C174.974 205.975 175.096 205.728 175.096 205.424C175.096 205.106 174.967 204.866 174.708 204.703C174.449 204.533 173.99 204.348 173.332 204.148C172.962 204.037 172.663 203.934 172.433 203.838C172.204 203.742 171.96 203.608 171.701 203.438C171.45 203.261 171.261 203.043 171.135 202.784C171.01 202.525 170.947 202.222 170.947 201.874C170.947 201.186 171.191 200.642 171.679 200.243C172.167 199.836 172.755 199.633 173.443 199.633C174.064 199.633 174.608 199.784 175.074 200.088C175.54 200.391 175.899 200.809 176.15 201.341L175.074 201.963C174.749 201.238 174.205 200.875 173.443 200.875C173.073 200.875 172.777 200.964 172.555 201.142C172.334 201.312 172.223 201.545 172.223 201.841C172.223 202.129 172.334 202.358 172.555 202.529C172.785 202.691 173.195 202.865 173.787 203.05C174.083 203.146 174.297 203.22 174.43 203.272C174.571 203.316 174.763 203.39 175.007 203.494C175.259 203.597 175.447 203.701 175.573 203.804C175.699 203.908 175.832 204.037 175.973 204.193C176.121 204.348 176.224 204.526 176.283 204.725C176.342 204.925 176.372 205.151 176.372 205.402C176.372 206.105 176.117 206.663 175.607 207.077C175.104 207.484 174.442 207.688 173.621 207.688Z" fill="#718EBF"/>
<path d="M159.539 180.901C159.539 178.603 161.402 176.741 163.7 176.741H183.115C185.413 176.741 187.276 178.603 187.276 180.901V193.383H159.539V180.901Z" fill="#E8F2FF"/>
<path d="M209.912 199.777V207.543H208.636V202.007L206.273 205.912H206.118L203.755 201.996V207.543H202.479V199.777H203.854L206.195 203.66L208.547 199.777H209.912Z" fill="#718EBF"/>
<path d="M192.823 172.58C192.823 170.283 194.686 168.42 196.983 168.42H216.399C218.697 168.42 220.56 170.283 220.56 172.58V193.383H192.823V172.58Z" fill="#E8F2FF"/>
<path d="M242.472 199.777V200.998H240.286V207.543H239.011V200.998H236.814V199.777H242.472Z" fill="#718EBF"/>
<path d="M226.107 139.296C226.107 136.999 227.97 135.136 230.267 135.136H249.683C251.981 135.136 253.844 136.999 253.844 139.296V193.383H226.107V139.296Z" fill="#E8F2FF"/>
<path d="M269.472 207.543L267.275 199.777H268.617L270.248 205.846L272.012 199.777H273.188L274.941 205.846L276.572 199.777H277.915L275.718 207.543H274.242L272.6 201.874L270.947 207.543H269.472Z" fill="#718EBF"/>
<path d="M259.391 154.552C259.391 152.254 261.254 150.391 263.551 150.391H282.967C285.265 150.391 287.127 152.254 287.127 154.552V193.383H259.391V154.552Z" fill="#3734A9"/>
<path d="M309.04 199.777V200.998H306.855V207.544H305.579V200.998H303.382V199.777H309.04Z" fill="#718EBF"/>
<path d="M292.675 115.72C292.675 113.423 294.538 111.56 296.836 111.56H316.251C318.549 111.56 320.412 113.423 320.412 115.72V193.383H292.675V115.72Z" fill="#3734A9"/>
<path d="M343.336 200.998H340.063V203.172H343.225V204.393H340.063V207.543H338.787V199.777H343.336V200.998Z" fill="#718EBF"/>
<path d="M325.959 180.901C325.959 178.604 327.822 176.741 330.119 176.741H349.535C351.833 176.741 353.696 178.604 353.696 180.901V193.383H325.959V180.901Z" fill="#E8F2FF"/>
<path d="M373.324 207.688C372.577 207.688 371.941 207.518 371.416 207.177C370.898 206.837 370.536 206.371 370.329 205.779L371.427 205.136C371.738 206.009 372.381 206.445 373.358 206.445C373.838 206.445 374.197 206.353 374.434 206.168C374.678 205.975 374.8 205.728 374.8 205.424C374.8 205.106 374.671 204.866 374.412 204.703C374.153 204.533 373.694 204.348 373.036 204.148C372.666 204.037 372.367 203.934 372.137 203.838C371.908 203.742 371.664 203.608 371.405 203.438C371.154 203.261 370.965 203.043 370.839 202.784C370.713 202.525 370.651 202.222 370.651 201.874C370.651 201.186 370.895 200.643 371.383 200.243C371.871 199.836 372.459 199.633 373.147 199.633C373.768 199.633 374.312 199.785 374.778 200.088C375.244 200.391 375.603 200.809 375.854 201.341L374.778 201.963C374.452 201.238 373.909 200.876 373.147 200.876C372.777 200.876 372.481 200.964 372.259 201.142C372.037 201.312 371.927 201.545 371.927 201.841C371.927 202.129 372.037 202.358 372.259 202.529C372.489 202.691 372.899 202.865 373.491 203.05C373.787 203.146 374.001 203.22 374.134 203.272C374.275 203.316 374.467 203.39 374.711 203.494C374.963 203.597 375.151 203.701 375.277 203.804C375.403 203.908 375.536 204.037 375.676 204.193C375.824 204.348 375.928 204.526 375.987 204.725C376.046 204.925 376.076 205.151 376.076 205.402C376.076 206.105 375.821 206.663 375.31 207.077C374.807 207.484 374.145 207.688 373.324 207.688Z" fill="#718EBF"/>
<path d="M359.243 154.552C359.243 152.254 361.106 150.391 363.403 150.391H382.819C385.117 150.391 386.98 152.254 386.98 154.552V193.383H359.243V154.552Z" fill="#3734A9"/>
<path d="M407.995 207.688C407.248 207.688 406.612 207.518 406.087 207.177C405.569 206.837 405.206 206.371 404.999 205.779L406.098 205.136C406.408 206.009 407.052 206.445 408.028 206.445C408.509 206.445 408.868 206.353 409.104 206.168C409.348 205.975 409.47 205.728 409.47 205.424C409.47 205.106 409.341 204.866 409.082 204.703C408.823 204.533 408.365 204.348 407.706 204.148C407.337 204.037 407.037 203.934 406.808 203.838C406.578 203.742 406.334 203.608 406.075 203.438C405.824 203.261 405.635 203.043 405.51 202.784C405.384 202.525 405.321 202.222 405.321 201.874C405.321 201.186 405.565 200.643 406.053 200.243C406.541 199.836 407.129 199.633 407.817 199.633C408.439 199.633 408.982 199.785 409.448 200.088C409.914 200.391 410.273 200.809 410.524 201.341L409.448 201.963C409.123 201.238 408.579 200.876 407.817 200.876C407.448 200.876 407.152 200.964 406.93 201.142C406.708 201.312 406.597 201.545 406.597 201.841C406.597 202.129 406.708 202.358 406.93 202.529C407.159 202.691 407.57 202.865 408.161 203.05C408.457 203.146 408.672 203.22 408.805 203.272C408.945 203.316 409.138 203.39 409.382 203.494C409.633 203.597 409.822 203.701 409.947 203.804C410.073 203.908 410.206 204.037 410.347 204.193C410.495 204.348 410.598 204.526 410.658 204.725C410.717 204.925 410.746 205.151 410.746 205.402C410.746 206.105 410.491 206.663 409.981 207.077C409.478 207.484 408.816 207.688 407.995 207.688Z" fill="#718EBF"/>
<path d="M392.527 133.749C392.527 131.451 394.389 129.589 396.687 129.589H416.103C418.401 129.589 420.263 131.451 420.263 133.749V193.383H392.527V133.749Z" fill="#3734A9"/>
<defs>
<filter id="filter0_dddddd_0_369" x="0.0534973" y="0.202256" width="558.893" height="484.415" filterUnits="userSpaceOnUse" color-interpolation-filters="sRGB">
<feFlood flood-opacity="0" result="BackgroundImageFix"/>
<feColorMatrix in="SourceAlpha" type="matrix" values="0 0 0 0 0 0 0 0 0 0 0 0 0 0 0 0 0 0 127 0" result="hardAlpha"/>
<feOffset dy="2.56821"/>
<feGaussianBlur stdDeviation="2.18298"/>
<feColorMatrix type="matrix" values="0 0 0 0 0 0 0 0 0 0 0 0 0 0 0 0 0 0 0.01 0"/>
<feBlend mode="normal" in2="BackgroundImageFix" result="effect1_dropShadow_0_369"/>
<feColorMatrix in="SourceAlpha" type="matrix" values="0 0 0 0 0 0 0 0 0 0 0 0 0 0 0 0 0 0 127 0" result="hardAlpha"/>
<feOffset dy="11.3001"/>
<feGaussianBlur stdDeviation="4.52004"/>
<feColorMatrix type="matrix" values="0 0 0 0 0 0 0 0 0 0 0 0 0 0 0 0 0 0 0.0117778 0"/>
<feBlend mode="normal" in2="effect1_dropShadow_0_369" result="effect2_dropShadow_0_369"/>
<feColorMatrix in="SourceAlpha" type="matrix" values="0 0 0 0 0 0 0 0 0 0 0 0 0 0 0 0 0 0 127 0" result="hardAlpha"/>
<feOffset dy="27.7366"/>
<feGaussianBlur stdDeviation="9.0144"/>
<feColorMatrix type="matrix" values="0 0 0 0 0 0 0 0 0 0 0 0 0 0 0 0 0 0 0.015 0"/>
<feBlend mode="normal" in2="effect2_dropShadow_0_369" result="effect3_dropShadow_0_369"/>
<feColorMatrix in="SourceAlpha" type="matrix" values="0 0 0 0 0 0 0 0 0 0 0 0 0 0 0 0 0 0 127 0" result="hardAlpha"/>
<feOffset dy="53.4187"/>
<feGaussianBlur stdDeviation="17.6693"/>
<feColorMatrix type="matrix" values="0 0 0 0 0 0 0 0 0 0 0 0 0 0 0 0 0 0 0.0182222 0"/>
<feBlend mode="normal" in2="effect3_dropShadow_0_369" result="effect4_dropShadow_0_369"/>
<feColorMatrix in="SourceAlpha" type="matrix" values="0 0 0 0 0 0 0 0 0 0 0 0 0 0 0 0 0 0 127 0" result="hardAlpha"/>
<feOffset dy="89.8872"/>
<feGaussianBlur stdDeviation="32.4878"/>
<feColorMatrix type="matrix" values="0 0 0 0 0 0 0 0 0 0 0 0 0 0 0 0 0 0 0.0227778 0"/>
<feBlend mode="normal" in2="effect4_dropShadow_0_369" result="effect5_dropShadow_0_369"/>
<feColorMatrix in="SourceAlpha" type="matrix" values="0 0 0 0 0 0 0 0 0 0 0 0 0 0 0 0 0 0 127 0" result="hardAlpha"/>
<feOffset dy="138.683"/>
<feGaussianBlur stdDeviation="55.4733"/>
<feColorMatrix type="matrix" values="0 0 0 0 0 0 0 0 0 0 0 0 0 0 0 0 0 0 0.03 0"/>
<feBlend mode="normal" in2="effect5_dropShadow_0_369" result="effect6_dropShadow_0_369"/>
<feBlend mode="normal" in="SourceGraphic" in2="effect6_dropShadow_0_369" result="shape"/>
</filter>
</defs>
</svg>
