<svg width="97" height="101" viewBox="0 0 97 101" fill="none" xmlns="http://www.w3.org/2000/svg">
<path fill-rule="evenodd" clip-rule="evenodd" d="M52.3067 84.0185C52.0134 83.8635 51.5508 83.6192 51.057 83.3582C51.1552 83.2029 51.2227 83.0956 51.3329 82.9212C51.2078 82.7792 51.033 82.6383 50.9369 82.4565C50.8417 82.2755 50.8247 82.0535 50.7746 81.8526C50.6379 81.8062 50.5074 81.7619 50.3877 81.7213V81.2313C50.5393 81.1592 50.693 81.0855 50.8864 80.9931C50.7845 80.7885 50.6921 80.6025 50.5828 80.3843C50.7911 80.2521 50.9949 80.0127 51.1892 80.021C51.8432 80.0475 52.5212 79.8193 53.1537 80.1631C53.2428 80.2119 53.3608 80.2211 53.466 80.2235C54.2302 80.2434 54.9804 80.2513 55.7487 80.4199C56.7034 80.6286 57.7112 80.5901 58.6937 80.6845C59.0428 80.7181 59.3825 80.8353 59.7296 80.9016C60.0415 80.9608 60.4093 80.7616 60.6615 81.1145C60.6881 81.1518 60.8032 81.1311 60.8765 81.1286C61.7857 81.0992 62.6381 81.3866 63.5154 81.5531C64.3177 81.7051 65.1258 81.8335 65.9169 82.0369C67.546 82.4548 69.1949 82.7858 70.8016 83.3106C71.4225 83.5135 72.0686 83.726 72.7264 83.8524C72.9016 83.8859 73.0491 84.0611 73.3995 84.3022H72.3147C72.311 84.3482 72.3072 84.3945 72.3031 84.4414C72.68 84.5809 73.0561 84.7209 73.4836 84.88C73.3957 85.0349 73.3125 85.1824 73.2383 85.3132C73.3158 85.4288 73.3941 85.5448 73.508 85.7142C73.1075 86.0004 72.7459 86.2593 72.3805 86.5202C72.3271 86.3877 72.2749 86.2585 72.197 86.065C72.0401 86.1359 71.8889 86.2034 71.7344 86.273C71.606 86.2228 71.4486 86.1611 71.2912 86.0998C71.1321 86.0385 70.9722 85.9772 70.8811 85.9424C70.6115 86.0137 70.3804 86.075 70.1824 86.1276C70.0005 85.9453 69.8672 85.8128 69.7346 85.6798C69.0669 86.1905 68.4618 85.5734 67.8218 85.5672C67.6918 85.5655 67.5634 85.4309 67.4333 85.4292C66.6381 85.4185 65.8958 85.1753 65.1333 84.9906C64.4353 84.8208 63.6952 84.8307 62.9757 84.7404C62.5528 84.6874 62.134 84.5983 61.7153 84.5172C61.2953 84.436 60.816 84.718 60.4449 84.3076C60.4101 84.269 60.3028 84.2972 60.2287 84.2922C59.0565 84.2173 57.8831 84.1547 56.7125 84.0607C56.2515 84.0234 55.7992 83.8851 55.3382 83.8495C54.8524 83.8114 54.3599 83.8205 53.8724 83.8466C53.4118 83.8714 52.9537 83.9447 52.3067 84.0185Z" fill="black"/>
<path fill-rule="evenodd" clip-rule="evenodd" d="M15.4609 82.1235C15.038 81.8679 14.7373 81.6856 14.4453 81.5092C14.7941 80.5627 14.7941 80.5627 13.6608 80.0119C13.5278 80.1452 13.3949 80.2778 13.1886 80.4845C13.0962 80.342 13.0039 80.1991 12.8718 79.9953C13.2263 79.6602 13.2164 79.2332 12.8113 78.8359C13.1422 78.5427 13.4206 78.2962 13.7813 77.9761C13.8969 77.9707 14.15 77.9578 14.4147 77.945C14.442 77.8174 14.4639 77.7143 14.4867 77.6074C14.5431 77.5784 14.6052 77.5188 14.6669 77.5196C14.9962 77.5242 15.3023 77.3506 15.5918 77.3191C16.9218 77.1754 18.205 76.6717 19.5768 76.8204C19.9094 76.8565 20.3734 76.5148 20.585 76.6494C20.9487 76.8801 21.1554 76.5628 21.4387 76.5993C21.8086 76.6469 22.1921 76.6403 22.5636 76.5993C22.7596 76.5777 22.9418 76.4348 23.1149 76.3536C23.2297 76.4588 23.3105 76.5334 23.3254 76.5467C24.0821 76.294 24.7722 76.2977 25.6089 76.5843C25.6378 76.5661 25.7861 76.3959 25.9319 76.398C27.0068 76.4137 28.08 76.487 29.1544 76.4953C29.8225 76.5007 30.4906 76.4108 31.1596 76.3938C31.3559 76.3888 31.5547 76.4874 31.8049 76.5516C31.8223 76.5359 31.9014 76.4642 31.9768 76.3963C32.0621 76.4717 32.1441 76.5446 32.2377 76.6278C32.9191 76.2397 33.634 76.405 34.3444 76.417C34.3444 76.5756 34.3444 76.6506 34.3444 76.726C34.1571 76.8221 33.9703 76.9182 33.7603 77.0255C33.7131 76.9841 33.6348 76.9149 33.5503 76.8399C32.7393 77.2678 31.8322 76.9604 30.9732 77.2272C31.2022 77.2479 31.4594 77.3436 31.6537 77.2707C31.932 77.1667 32.0932 77.6364 32.4088 77.3444C32.5244 77.238 32.857 77.3668 33.2364 77.402C33.2248 77.4082 33.3689 77.3241 33.4981 77.2483C33.6232 77.3626 33.704 77.4368 33.7848 77.5101C34.0258 77.1526 34.3841 77.3216 34.6956 77.3001C34.8074 77.4123 34.9139 77.5188 35.0638 77.6683C34.8016 77.7197 34.573 77.7648 34.3444 77.8091C34.3464 77.8501 34.3481 77.8903 34.3502 77.9309C34.6322 77.9516 34.9147 77.9719 35.3107 78.0005C35.1943 78.3766 35.0945 78.6984 34.969 79.1039C33.9794 79.0054 32.9758 78.9047 32.1205 78.8194C31.792 79.1329 31.5796 79.3363 31.387 79.5198C30.8659 79.3906 30.6696 78.9739 30.4252 78.6081C30.2591 78.7771 30.1278 78.9109 30.0271 79.0141C29.6701 78.9515 29.3404 78.8935 29.0745 78.8471C28.8947 79.135 28.7638 79.3446 28.6412 79.5409H27.8965C27.7876 79.6697 27.6674 79.8122 27.5378 79.9655H26.5081C26.4733 79.8669 26.4277 79.736 26.3453 79.5012C25.8955 79.6337 25.439 79.7683 25.0141 79.8938C24.7034 79.8541 24.3986 79.799 24.0912 79.7787C23.7918 79.7588 23.4165 79.6623 23.2065 79.8006C22.8905 80.0085 22.5893 79.9812 22.2679 80.0011C21.939 80.021 21.5551 79.9518 21.2983 80.1001C21.0576 80.2393 20.8555 79.9348 20.6003 80.1962C20.4417 80.3577 19.9832 80.226 19.6522 80.3867C19.8805 80.431 20.1091 80.4758 20.3883 80.5304C19.8084 80.9678 19.3681 80.4613 18.8855 80.4236C18.3355 80.3809 17.9482 80.8125 17.4164 80.791C17.5564 80.8593 17.6964 80.9272 17.8248 80.9898C17.7829 81.0362 17.7361 81.1265 17.6997 81.1223C17.5249 81.1029 17.3534 81.0536 17.1794 81.0229C16.9603 80.984 16.7391 80.9533 16.5014 81.0316C16.6472 81.1016 16.7926 81.1712 17.0809 81.3096H15.9812C15.8018 81.5904 15.6519 81.8244 15.4609 82.1235Z" fill="black"/>
<path fill-rule="evenodd" clip-rule="evenodd" d="M16.2214 21.0886C16.4289 21.2207 16.6989 21.393 17.0233 21.6001C16.8257 21.6672 16.6948 21.712 16.5498 21.7613C16.5631 21.8122 16.5614 21.8971 16.5921 21.9108C16.8447 22.0263 17.1036 22.1278 17.3608 22.2339C17.073 22.6286 17.6321 22.9927 17.348 23.3319C17.167 23.5626 16.986 23.7929 16.7934 24.0381C15.7562 23.5564 14.6888 23.6521 13.6951 23.7933C12.9297 23.9027 12.1725 23.906 11.4146 23.9818C11.0314 24.0207 10.6814 24.3015 10.2668 24.1926C10.1065 24.1508 9.95532 24.0737 9.8 24.0133C9.55396 24.6739 9.01053 24.6839 8.34201 24.618C8.25213 24.3624 8.15976 24.1011 8.09225 23.9097C7.81515 23.6533 7.5716 23.4276 7.26964 23.1488C7.22864 23.2279 7.13213 23.4143 7.1139 23.4495C6.1397 23.643 5.30095 23.2913 4.5003 23.7718C4.40544 23.7022 4.29195 23.6194 4.16935 23.5303C3.81686 23.616 3.43953 23.708 3.06799 23.7991C2.96941 23.5941 2.89982 23.4479 2.80828 23.2569C2.74284 23.4371 2.69562 23.5672 2.61609 23.785C2.32864 23.7018 2.03497 23.6169 1.70361 23.5208C1.63982 23.6513 1.56692 23.8008 1.46544 24.0083C1.31343 23.9325 1.16225 23.8579 1.00319 23.7788C0.543846 24.1727 -0.0372777 23.8708 -0.478402 23.9698C-0.700414 23.8579 -0.85077 23.7813 -1.0268 23.6923C-1.09598 23.8857 -1.14278 24.0162 -1.17799 24.1135C-2.05195 24.2212 -2.91059 24.3268 -3.75349 24.4308C-3.81314 24.594 -3.86035 24.7244 -3.92663 24.9063C-4.01858 24.7174 -4.08817 24.5737 -4.16438 24.4167C-4.65769 24.4039 -4.75793 24.9386 -5.17793 25.1258C-5.4484 24.9717 -5.75201 24.7986 -6.06349 24.6213C-6.08254 24.4179 -6.09953 24.2398 -6.11817 24.0456C-6.4313 23.8882 -6.99089 24.0684 -7 23.452C-6.77012 23.2967 -6.54065 23.1414 -6.25568 22.9488C-6.4458 22.8858 -6.57296 22.8431 -6.70882 22.7984C-6.68686 22.3254 -6.32154 22.1427 -5.91065 21.9365C-5.60746 21.9365 -5.12657 22.0789 -4.88343 21.8988C-4.60799 21.695 -4.3632 21.9456 -4.09893 21.7389C-3.85331 21.5471 -3.39107 21.8453 -3.06178 21.5272C-2.96195 21.4303 -2.64675 21.415 -2.5345 21.4999C-2.22509 21.7343 -1.97118 21.4974 -1.69491 21.4879C-1.31923 21.475 -0.943136 21.4846 -0.567041 21.4846C-0.228639 21.4846 0.190118 21.6109 0.430355 21.4572C0.871893 21.1752 1.31426 21.4324 1.75663 21.2899C2.19941 21.1478 2.73166 21.3123 3.21047 21.2435C3.68432 21.1756 4.10763 21.4431 4.6142 21.2899C5.09675 21.1445 5.65965 21.2878 6.1832 21.2505C6.68148 21.2145 7.17645 21.1197 7.66893 21.0294C8.16225 20.9395 8.69657 21.2447 9.17 20.8235C9.29592 20.7121 9.60615 20.8069 9.83189 20.8069C11.3359 20.8069 12.8402 20.7817 14.3434 20.8194C14.9498 20.8347 15.5533 20.9884 16.2214 21.0886Z" fill="black"/>
<path fill-rule="evenodd" clip-rule="evenodd" d="M50.3088 94.3124C49.9443 94.5348 49.7334 94.6632 49.5255 94.7895C49.8034 94.9088 50.1046 95.0385 50.4533 95.1884C50.3709 95.3922 50.3191 95.521 50.2383 95.7203C50.8307 96.2927 49.9488 96.605 49.8726 97.1787C49.3093 96.89 48.7655 96.6112 48.2001 96.3213C48.176 96.3917 48.1334 96.5163 48.0609 96.7297C46.3109 96.3465 44.5186 96.185 42.7036 96.1092C42.9318 96.0645 43.1605 96.0201 43.3883 95.9754C43.3866 95.9402 43.3846 95.9054 43.3825 95.8702H41.6383C41.594 95.9928 41.5468 96.1229 41.4946 96.267H41.0385C40.2495 96.267 39.4575 96.2281 38.6714 96.2782C37.9511 96.3237 37.237 96.4646 36.3643 96.5855C35.9492 96.7785 35.4754 97.2855 34.6412 97.1339C34.526 96.9948 34.3397 96.7698 34.1114 96.494C34.1417 96.4335 34.205 96.3097 34.2692 96.1837C33.9395 95.6917 33.5924 95.1735 33.2793 94.7063C33.4549 94.1587 33.6098 93.6749 33.8053 93.064C34.3289 92.6162 35.1208 92.4671 35.883 92.4464C38.024 92.388 40.1675 92.4149 42.3097 92.4365C42.6924 92.4398 43.0739 92.5794 43.4566 92.651C43.8406 92.7227 44.2689 92.4924 44.6205 92.8523C44.6951 92.929 44.9063 92.8722 45.0542 92.878C46.2421 92.9232 48.5294 93.5681 49.8026 94.2101C49.8929 94.2552 50.0068 94.2532 50.3088 94.3124Z" fill="black"/>
<path fill-rule="evenodd" clip-rule="evenodd" d="M67.8253 20.934C67.6546 20.9933 67.5237 21.0384 67.2897 21.1196C67.5631 21.3234 67.7872 21.4907 68.0502 21.6866C67.9744 21.8055 67.899 21.9232 67.8116 22.0598C67.9388 22.1203 68.0841 22.1903 68.2308 22.2607V22.5097C68.0883 22.5764 67.9354 22.648 67.7826 22.7197C67.8605 22.8075 67.9296 22.8862 67.9988 22.9649C67.8017 23.0668 67.6153 23.1637 67.3481 23.302C65.7584 23.201 64.0618 23.5145 62.3715 23.1798C62.516 23.2494 62.6606 23.319 62.8097 23.3911C62.1362 23.8658 61.5029 23.0722 60.8431 23.3393C60.8265 23.3695 60.7934 23.4031 60.8004 23.4209C60.8128 23.4532 60.853 23.4731 60.8754 23.5029C60.9122 23.553 60.9441 23.6069 61.0622 23.7895C60.527 23.7026 60.0983 23.633 59.6034 23.5522C59.728 23.6964 59.7951 23.7738 59.8631 23.8525C59.4919 24.2622 59.1672 23.6781 58.7128 23.7622C58.8135 23.8981 58.8653 23.9685 58.9564 24.0915C58.3777 24.2791 57.8194 24.5645 57.2387 24.6208C56.5751 24.6859 56.2757 25.3788 55.6784 25.3478C55.5566 25.8075 55.4489 26.2147 55.3342 26.6471H54.5323C54.4474 26.5626 54.2428 26.4487 54.2502 26.3506C54.3032 25.6141 53.4927 25.2575 53.5254 24.4875C53.5809 23.1732 54.1102 22.1543 55.3599 21.4907C56.2301 21.0285 57.1459 20.7066 58.1396 20.5538C58.712 20.466 59.2832 20.4084 59.8523 20.3285C60.4239 20.2481 60.9814 20.0998 61.5692 20.1243C62.1325 20.1475 62.6979 20.1293 63.2624 20.1293C63.8643 20.1293 64.474 20.0696 65.0667 20.1437C65.874 20.244 66.6705 20.4366 67.4657 20.6151C67.5912 20.6433 67.6865 20.8061 67.8253 20.934Z" fill="black"/>
<path fill-rule="evenodd" clip-rule="evenodd" d="M42.426 65.7361H41.6569C41.5351 65.2192 41.4216 64.7379 41.299 64.2173H40.7763C40.3985 63.5902 41.1246 63.0832 40.8753 62.5468C41.2791 61.9582 41.8718 61.841 42.4712 61.6915C43.674 61.392 44.9125 61.3775 46.1182 61.1932C47.6462 60.9604 49.1585 60.991 50.6624 61.0565C52.4775 61.1356 54.2987 61.3684 56.0483 61.9325C56.2115 61.9851 56.3436 62.1355 56.537 62.2742C56.3623 62.3318 56.2351 62.3741 56.0939 62.4209C56.1026 62.471 56.0922 62.5501 56.1228 62.5716C56.3834 62.7593 56.651 62.937 56.9384 63.1325C56.8614 63.2265 56.7992 63.3027 56.7396 63.3756C56.8204 63.5177 56.9036 63.6639 56.9956 63.8271C56.7918 63.9223 56.6394 63.9936 56.4878 64.0648C56.5656 64.1547 56.6331 64.2322 56.7052 64.315C56.2123 64.53 55.8259 64.7578 55.1983 64.4587C54.5812 64.1642 53.7793 64.2202 53.0557 64.1945C52.0028 64.1572 50.9474 64.1961 49.8933 64.1796C49.4658 64.1729 49.0284 64.2881 48.6159 63.9795C48.4672 63.8681 48.1441 63.9894 47.8537 64.0077C47.9813 64.156 48.0484 64.2334 48.2012 64.4111C47.6678 64.4111 47.2237 64.4422 46.7863 64.4012C46.4181 64.3668 46.0573 64.2491 45.5301 64.1319C45.7189 64.3585 45.7827 64.4351 45.8755 64.5465C45.3424 64.7835 44.8499 64.5817 44.2042 64.3071C44.3682 64.5788 44.4275 64.6762 44.5579 64.8928C44.1168 64.7996 43.7668 64.7263 43.3062 64.6294C43.4603 64.812 43.5249 64.8887 43.6483 65.0353C43.365 65.0626 43.1281 65.0858 42.8369 65.114C42.7118 65.3037 42.5602 65.5332 42.426 65.7361Z" fill="black"/>
<path fill-rule="evenodd" clip-rule="evenodd" d="M29.4497 63.6951C29.3023 63.5476 29.1958 63.4412 29.002 63.2473C28.9361 63.4615 28.8699 63.6764 28.8579 63.7158C28.138 63.6073 27.6587 63.5352 27.0093 63.4379C27.1882 63.6694 27.2445 63.7427 27.3448 63.8732C27.2201 63.9125 27.112 63.9473 27.0026 63.9821C26.9124 63.799 26.8378 63.6487 26.7119 63.3935C26.5595 63.6019 26.4509 63.7506 26.3345 63.91C25.589 63.8355 24.8078 63.7576 24.0763 63.6851C24.0005 63.8081 23.9653 63.8417 23.9719 63.8599C23.984 63.8922 24.0245 63.9121 24.0469 63.9419C24.085 63.9921 24.1182 64.0463 24.2345 64.219C23.5602 64.1159 22.9866 64.0281 22.2642 63.9171C22.4489 64.135 22.5148 64.212 22.5806 64.2899C22.142 64.6705 21.734 64.2385 21.1984 64.1441C21.3227 64.3524 21.3803 64.4485 21.454 64.5728C20.9205 64.8478 20.4376 64.1031 19.8991 64.5222C20.0424 64.5918 20.1837 64.661 20.3961 64.765C19.9732 64.8573 19.6092 64.9364 19.0777 65.052C18.5621 64.8142 18.1503 64.3093 18.0219 63.5302C17.8534 63.5174 17.6757 63.5041 17.4019 63.4838C17.4396 63.22 17.4768 62.9619 17.5278 62.6103C17.5315 62.6153 17.447 62.5042 17.3774 62.4127C17.43 62.3017 17.4462 62.2259 17.4913 62.1779C18.1284 61.5052 18.8537 61.1034 19.825 60.9738C20.4347 60.8922 21.0688 60.9282 21.6495 60.775C22.97 60.4266 24.2987 60.6134 25.6221 60.5782C26.9372 60.543 28.2548 60.5372 29.5695 60.5807C30.5764 60.6147 31.5116 60.9315 32.3297 61.5599C32.234 61.6642 32.1599 61.745 32.0787 61.8337C32.0816 62.2537 32.4154 62.3348 32.7542 62.4603C32.6905 62.5419 32.6329 62.6157 32.5277 62.7499C32.6917 62.8609 32.8698 62.9814 33.0061 63.0738C32.8814 63.3041 32.799 63.4553 32.6851 63.6657C32.538 63.7402 32.3206 63.8512 32.1052 63.961C31.2656 63.4818 30.3544 63.8703 29.4497 63.6951Z" fill="black"/>
<path fill-rule="evenodd" clip-rule="evenodd" d="M46.8361 1.95079C46.7868 2.28298 46.7558 2.49091 46.7234 2.71044C46.3043 2.38695 45.9427 3.01032 45.4402 2.53937C45.4651 2.61766 45.4245 2.48967 45.3715 2.3215H44.6201C44.5091 2.45736 44.3753 2.62097 44.1848 2.85375C44.0949 2.59777 44.0489 2.4673 43.9818 2.27718C43.7959 2.28712 43.5917 2.29789 43.3245 2.31239C43.462 2.46481 43.5329 2.54434 43.6579 2.68351C43.3291 2.71209 43.0474 2.73653 42.7807 2.76014C42.7525 2.80902 42.7185 2.84257 42.7252 2.86079C42.7376 2.89268 42.7782 2.91257 42.8001 2.9428C42.8378 2.99292 42.8701 3.04677 42.9161 3.11635C41.9485 3.42949 41.0481 2.69055 40.0101 3.03558C40.0672 3.1176 40.1289 3.20623 40.2474 3.37647C39.9388 3.37647 39.5781 3.48541 39.4144 3.35245C39.1291 3.1205 38.8155 3.12091 38.5782 3.20251C37.6011 3.53925 36.5312 3.39718 35.5711 3.84038C35.3296 3.95221 34.9639 3.79481 34.6056 3.75547C34.3935 4.11002 34.1541 4.2376 33.4123 4.2757C33.5978 4.06032 33.7386 3.89629 33.9313 3.67263H33.2892C33.2458 3.43446 33.2081 3.22777 33.1671 3.0041C32.962 2.97221 32.7549 2.94032 32.5449 2.9076C32.6423 2.49008 32.7301 2.11357 32.8328 1.67245C33.3663 1.28268 34.0754 1.09132 34.7497 0.808424C35.1958 0.62162 35.7397 0.949667 36.0776 0.473336C36.836 0.397951 37.5998 0.355702 38.3524 0.241383C40.9458 -0.153765 43.556 0.112566 46.1552 0.000731975C46.588 -0.0179071 47.0088 0.328365 47.4355 0.021442C47.8157 0.489489 48.4055 0.0993119 48.8686 0.386353C49.2356 0.61375 49.7322 0.633217 50.269 0.769489C50.0085 0.891679 49.8556 0.963336 49.6697 1.05032C49.8051 1.52292 50.3353 1.45831 50.5809 1.74908C50.4488 1.80292 50.32 1.85552 50.1915 1.90771C50.2715 2.05186 50.3506 2.19476 50.4318 2.34055C50.0259 2.60399 49.6369 2.69428 49.2045 2.76511C48.787 2.83345 48.4221 2.38736 48.0273 2.71913C47.6749 2.49215 47.3224 2.26434 46.8361 1.95079Z" fill="black"/>
<path fill-rule="evenodd" clip-rule="evenodd" d="M38.0074 13.5509C37.8401 13.821 37.7663 13.9394 37.6881 14.0658C37.9561 14.2468 38.1847 14.4013 38.4171 14.5582C38.3549 14.6332 38.3114 14.6862 38.2336 14.7811C38.2858 14.8962 38.3653 15.0313 38.4063 15.1775C38.4353 15.2806 38.4121 15.3982 38.4121 15.5751C38.0919 15.7474 37.7535 15.9292 37.5592 16.034C36.9889 16.1293 36.7673 15.455 36.3005 15.8017C35.9033 15.3767 35.5321 15.8187 35.1486 15.8278C34.0961 15.8535 33.0416 15.8613 31.9903 15.8232C31.6109 15.8095 31.2369 15.6447 30.8384 15.5432C30.773 15.7342 30.7282 15.8655 30.6831 15.9964C30.382 16.3194 30.1136 15.7342 29.7321 15.9922C29.4716 16.1678 29.0081 16.0879 28.6423 16.051C28.3072 16.0175 27.9808 15.8891 27.5132 15.7661C27.6491 16.0075 27.705 16.1074 27.833 16.3343C26.9772 16.1413 26.1919 16.5046 25.3917 16.0895C25.074 15.9247 24.5997 16.0622 24.1888 16.2271C24.5616 16.266 24.9344 16.3049 25.3072 16.3439C25.3055 16.3799 25.3043 16.4164 25.303 16.4524H23.7647C23.6707 16.3497 23.4805 16.1417 23.3281 15.9752C23.4052 15.7868 23.4669 15.6356 23.5443 15.4446C23.3625 15.4074 23.2594 15.3862 23.1049 15.3543C23.0746 15.1779 23.039 14.9712 23.0042 14.7691C22.8638 14.7194 22.7333 14.6734 22.6033 14.6278V14.0653C23.3468 14.0426 24.1048 14.019 24.8627 13.9953C24.8632 13.9427 24.8632 13.8906 24.8632 13.8384H22.9458C22.6592 13.4184 23.0593 13.1495 23.1471 13.1645C23.6185 13.2456 23.9693 12.9048 24.4079 12.8923C26.4835 12.8331 28.5578 12.7449 30.6326 12.6765C31.1963 12.6579 31.7621 12.65 32.3246 12.6786C33.4976 12.7374 34.6768 12.766 35.8387 12.9209C36.5527 13.0158 37.2395 13.3198 38.0074 13.5509Z" fill="black"/>
<path fill-rule="evenodd" clip-rule="evenodd" d="M7.43302 3.94091C6.9426 4.16996 6.57024 4.34434 6.1958 4.51913C6.06284 4.38576 5.92988 4.2528 5.74556 4.06848C5.69627 4.21056 5.65692 4.32322 5.59852 4.49138H4.57751C4.54728 4.37624 4.52077 4.27434 4.47396 4.09665C4.26024 4.16209 4.16828 4.36961 3.97609 4.51168H3.23302C3.19118 4.39363 3.14438 4.26274 3.05822 4.02044C2.98781 4.2089 2.94805 4.31369 2.9 4.44251C2.33254 4.68564 1.71041 4.80866 1.04396 4.78008C0.739112 4.76766 0.427632 4.90931 0.113668 4.98263C0.0432537 4.91801 -0.036273 4.84553 -0.111658 4.77635C-0.198226 4.85257 -0.280237 4.92588 -0.394557 5.02736C-0.667101 4.88695 -0.945859 4.74322 -1.15959 4.63304C-1.50213 4.69517 -1.80781 4.75067 -2.1574 4.81363C-2.2071 4.65209 -2.24686 4.52369 -2.29491 4.36712C-2.92781 4.3257 -3.36355 3.89369 -3.84692 3.53375C-3.75083 3.43766 -3.6713 3.35813 -3.51184 3.19825H-2.51982C-2.51444 3.156 -2.50905 3.11375 -2.50408 3.07109C-2.87231 2.9634 -3.24095 2.85529 -3.69367 2.72274C-3.50769 2.52393 -3.41077 2.42121 -3.27905 2.28079C-2.3384 2.28079 -1.36503 2.2957 -0.392072 2.27458C0.109112 2.2634 0.63349 2.40837 1.09988 2.06085C1.34302 1.87943 1.60396 2.39221 1.8355 2.12629C2.09852 1.82434 2.27621 2.44813 2.57568 2.13209C2.6987 2.00203 3.10876 2.16647 3.38669 2.15612C3.75408 2.14328 4.11982 2.06085 4.48639 2.05961C6.93308 2.0505 9.38142 2.10269 11.826 2.03393C12.9978 2.00162 14.1638 1.75434 15.3463 1.8289C15.8409 1.4818 16.3831 1.64085 16.9402 1.5957C16.7393 2.26712 16.1627 1.94073 15.577 2.22322C16.246 2.26008 16.6743 2.28411 17.2918 2.31848C17.0118 2.47091 16.8636 2.55209 16.6519 2.66766C16.7728 2.82754 16.8859 2.9605 16.9791 3.10629C17.0653 3.24132 17.1299 3.38961 17.2881 3.69487C16.9721 3.53334 16.8333 3.46209 16.6175 3.35109C16.545 3.52712 16.4841 3.67499 16.4195 3.83156C16.306 3.76612 16.1934 3.7015 16.0331 3.60872C15.9374 3.67458 15.8218 3.75452 15.6976 3.84026C15.6346 3.78351 15.5559 3.71144 15.4768 3.63979C15.3455 3.77109 15.2121 3.90405 15.063 4.05316C14.8323 3.93428 14.5954 3.81209 14.3361 3.67872C14.281 3.79304 14.211 3.93677 14.1422 4.07842C14.0606 4.08215 13.9869 4.08547 13.8801 4.09002C13.8382 3.96949 13.7935 3.84109 13.7359 3.67458H13.1792C13.1486 3.7628 13.103 3.89411 13.028 4.11198C12.712 4.03825 12.3864 3.96245 12.0576 3.88541C12.0041 4.01919 11.9528 4.14884 11.8708 4.35387C11.7001 4.09458 11.5551 3.87422 11.4147 3.6605C11.2756 3.87795 11.1273 4.10949 11.0092 4.29381C10.4165 4.41186 10.2057 4.10493 10.0885 3.57476C9.91118 3.82203 9.77822 4.00718 9.58935 4.27061H8.66278C8.63751 4.19482 8.59402 4.06558 8.53976 3.90529H8.10402C8.21544 4.037 8.28006 4.11446 8.34674 4.19274C8.18024 4.44458 7.90562 4.35925 7.43302 3.94091Z" fill="black"/>
<path fill-rule="evenodd" clip-rule="evenodd" d="M62.2158 76.5757C62.0965 76.8226 61.9776 77.0686 61.8086 77.4199C61.7312 77.19 61.6976 77.091 61.6314 76.8955C61.4118 76.7663 60.9165 76.8951 60.7963 76.4908C60.7354 76.2858 60.8593 76.0257 60.9057 75.7548C60.7089 75.6653 60.424 75.5357 60.0611 75.3708C60.1179 74.7943 60.1767 74.1904 60.2454 73.4895C60.2612 73.5073 60.1883 73.4249 60.0234 73.2385C60.301 73.2895 60.4741 73.3218 60.7197 73.3665C60.7429 73.1681 60.7744 72.9059 60.8199 72.5203C61.3621 72.2867 61.9578 71.993 62.5799 71.7718C63.2153 71.5465 63.9513 71.5693 64.537 71.3183C65.2109 71.0288 65.9635 71.5266 66.5434 70.972C66.6179 71.0408 66.6987 71.1153 66.7791 71.1895C67.5843 70.7728 68.4429 71.0399 69.4747 70.9323C69.2899 71.1402 69.217 71.2222 69.1454 71.303C69.2154 71.3817 69.285 71.4599 69.4407 71.6356C68.7436 71.5912 68.1281 71.8166 67.5511 71.4094C66.9054 71.7346 66.2311 71.928 65.4872 71.8725C64.6153 71.807 63.8121 72.0854 62.8864 72.4569C63.19 72.6852 63.3959 72.8401 63.6249 73.0124C63.6725 72.8732 63.7173 72.7419 63.7616 72.611C63.8275 72.5886 63.8921 72.5572 63.96 72.546C64.4546 72.4623 64.9508 72.6537 65.4652 72.3488C65.8326 72.1314 66.415 72.4851 66.8238 72.0949C66.8433 72.0763 66.8967 72.0949 66.9344 72.0924C67.9947 72.017 69.0543 71.9255 70.1159 71.8762C70.4273 71.8621 70.7902 71.73 71.0536 72.0709C71.0975 72.1276 71.2843 72.1276 71.3742 72.0862C72.4101 71.6161 73.5007 71.9818 74.5582 71.8683C74.67 71.8559 74.7839 71.8667 74.9011 71.8667C75.0308 71.9984 75.1625 72.1322 75.3315 72.3041H76.6615C76.8305 72.4544 76.9407 72.553 77.0778 72.6756C76.9162 72.7315 76.7853 72.7771 76.5861 72.8463C76.8251 73.0012 77.0343 73.1375 77.337 73.3346C76.9253 73.6324 76.5629 73.8942 76.2237 74.1398C75.6094 73.9501 75.1078 73.2882 74.4302 73.8872C74.257 73.4759 74.0951 73.0467 73.4701 73.2758C73.456 73.362 73.4398 73.4643 73.4228 73.5699C73.5815 73.6469 73.7269 73.7169 73.8901 73.7952C73.7973 73.8399 73.7368 73.8764 73.6714 73.8988C73.2659 74.0379 72.9486 73.364 72.4615 73.8192C72.1587 74.1013 71.6554 73.9124 71.2239 74.0756C70.6746 74.2827 69.9887 74.1257 69.1027 74.1257C69.5128 73.9344 69.6631 73.864 69.9593 73.7256H68.7312C68.7991 73.9041 68.8637 74.0752 68.9544 74.315H67.5942C67.3055 74.4625 67.1547 74.5399 66.9021 74.6692C67.035 74.4724 67.4774 74.0392 67.5491 74.0002C67.1154 73.6714 66.8312 74.1502 66.4199 74.1887C66.5015 74.2914 66.5599 74.366 66.6813 74.5201C66.1826 74.6186 65.7195 74.723 65.2519 74.8001C64.8758 74.8614 64.5941 75.0316 64.3647 75.4085C64.1617 75.3493 63.9488 75.2872 63.6991 75.2147C63.1825 75.6123 62.6689 76.0083 62.1553 76.4043C62.1752 76.4618 62.1955 76.5186 62.2158 76.5757Z" fill="black"/>
<path fill-rule="evenodd" clip-rule="evenodd" d="M13.4291 47.8143C13.5571 47.8777 13.6846 47.9415 13.8122 48.0053C13.7944 48.0513 13.777 48.0981 13.7592 48.1444C13.3922 48.1444 12.9366 48.009 12.679 48.1768C12.3182 48.4124 12.1057 48.0894 11.829 48.1436C11.479 48.2115 11.1369 48.079 10.7587 48.2977C10.412 48.4982 9.90589 48.4849 9.58447 48.1871C9.23074 48.2538 8.91761 48.3006 8.61069 48.3735C8.33358 48.4394 8.06767 48.8411 7.78601 48.3826C7.56524 48.7533 7.32252 48.5611 7.08145 48.4095C6.82382 48.7492 6.45808 48.557 6.14205 48.5893C5.84424 48.62 5.53731 48.5682 5.24033 48.6026C4.81702 48.6518 4.37589 48.6862 3.98406 48.8366C3.43234 49.0478 2.86323 49.0515 2.2879 49.1265C2.91749 49.3539 3.60713 49.392 4.17915 49.2127C4.58589 49.0851 4.96033 49.0996 5.34844 49.0499C5.91962 48.9774 6.45891 48.7724 7.06157 48.7968C7.59009 48.8184 8.17826 49.0445 8.67282 48.6257C8.91595 48.8316 9.08909 48.8627 9.40139 48.6311C9.60104 48.4829 10.067 48.5715 10.3499 48.697C10.5815 48.7993 10.8279 48.5168 11.0342 48.808C11.0975 48.8971 11.4202 48.8838 11.5743 48.8117C12.3865 48.4302 13.2025 48.5649 14.0305 48.7165C14.1618 48.7405 14.3204 48.591 14.4588 48.6038C15.3771 48.69 16.3103 48.4062 17.2228 48.7372C17.3698 48.7902 17.5856 48.6113 17.7724 48.603C18.2607 48.5823 18.7524 48.6233 19.2395 48.5897C19.9395 48.5413 20.601 48.6585 21.3971 49.0052C20.8872 49.0325 20.5302 49.052 20.1727 49.0714L20.1362 49.1795C20.2328 49.211 20.3272 49.2508 20.4258 49.2719C20.5289 49.2934 20.6354 49.2972 20.7712 49.3121C20.6552 49.5461 20.5554 49.7474 20.4552 49.9487C20.3624 49.8659 20.2808 49.7926 20.1628 49.6873C20.0236 49.7619 19.877 49.8406 19.6367 49.9694C19.691 49.6434 19.7341 49.3862 19.7883 49.0636C19.7631 49.0383 19.6566 48.9318 19.5655 48.8407C19.0684 48.9405 18.5847 49.0383 18.0748 49.1406C18.1808 49.2549 18.2761 49.3572 18.3655 49.4533C18.5441 49.3825 18.716 49.3137 18.8754 49.2504C19.2022 49.7979 18.6236 49.6704 18.489 49.8617C18.5751 50.0402 18.646 50.1865 18.7661 50.4346C18.5697 50.3803 18.3515 50.3637 18.3419 50.3103C18.2504 49.7955 17.9567 49.6414 17.4767 49.7615C17.4257 49.8932 17.3756 50.0224 17.2671 50.3012C17.1051 49.9276 16.9908 49.6637 16.8491 49.3373C17.1817 49.2889 17.3893 49.2586 17.5964 49.2288C17.5984 49.1829 17.6005 49.1365 17.603 49.0909C17.2691 49.0718 16.9349 49.0528 16.524 49.03C16.565 49.1539 16.5899 49.2297 16.6437 49.3929C16.5907 49.5155 16.5016 49.7201 16.3977 49.9603C15.853 49.8924 15.276 50.0854 14.6236 49.7292C14.7293 49.993 14.7984 50.1649 14.88 50.3695H14.2919C14.1792 50.0415 14.0545 49.6786 13.9228 49.2947H13.5881C13.6739 49.4956 13.7464 49.6658 13.8222 49.8439C13.3968 49.9508 13.0252 50.0444 12.5634 50.1604C12.4425 50.0568 12.2581 49.8994 12.0718 49.7395C11.9326 50.0349 11.7992 50.3186 11.6505 50.635C11.5714 50.4731 11.5018 50.3306 11.4306 50.1852C11.1062 50.8069 10.5993 50.9473 9.94193 50.8028C10.0504 50.6185 10.1354 50.4739 10.2807 50.2262C9.89885 50.2047 9.62134 50.1881 9.30074 50.1699V50.8272C8.38205 50.942 7.49276 51.0526 6.59725 51.1644C6.55873 51.2779 6.51358 51.4092 6.44731 51.603C5.80033 51.1221 5.08003 51.3731 4.39039 51.2944C4.32246 51.1544 4.25246 51.0115 4.16134 50.8252C4.09506 51.0053 4.04702 51.1358 3.99855 51.2671C3.85234 51.1946 3.70654 51.1221 3.47252 51.0057C3.4282 51.2655 3.39382 51.4639 3.38057 51.5421C3.00447 51.9634 2.69216 52.313 2.355 52.6907C2.2879 52.5114 2.23903 52.3809 2.18353 52.2318C2.0311 52.4559 1.88323 52.6737 1.72956 52.9003C1.38702 52.4248 1.11696 51.9688 1.64009 51.4883C1.49181 51.3326 1.38992 51.2253 1.28181 51.1122C1.16873 51.1772 1.05648 51.2418 0.875478 51.3466C0.762815 51.2497 0.629857 51.1354 0.450508 50.9813C0.507253 50.2975 0.295596 49.5577 0.731336 48.8995C1.59702 48.3201 2.63418 48.3984 3.57855 48.13C4.59832 47.84 5.62388 47.946 6.64986 47.92C6.9079 47.9133 7.13489 47.9195 7.36477 47.7124C7.48944 47.5998 7.81045 47.6495 8.02003 47.7075C8.16169 47.7464 8.25199 48.0144 8.42347 47.7452C8.92465 47.9158 9.39932 47.6134 9.90962 47.6756C10.5032 47.7476 11.112 47.6921 11.7139 47.6921H13.4075C13.4146 47.7331 13.422 47.7733 13.4291 47.8143Z" fill="black"/>
<path fill-rule="evenodd" clip-rule="evenodd" d="M33.4185 32.8958V32.3785C33.1919 32.3437 32.9848 32.3122 32.6849 32.2662C32.8266 32.0256 32.9297 31.8504 32.9616 31.7965C33.6235 31.2568 34.2232 32.4452 34.654 31.717C35.1192 31.7816 35.465 31.8694 35.8109 31.8711C38.6693 31.8823 41.5277 31.8508 44.3857 31.8905C45.5189 31.9067 46.6505 32.0711 47.8592 32.1747L48.1035 32.4191C48.0605 32.4642 48.0178 32.5491 47.9743 32.5495C47.0718 32.5574 46.1692 32.5537 45.2663 32.5566C45.0915 32.5574 44.9163 32.5752 44.7406 32.6535C45.1627 32.8337 45.6026 32.7678 46.0338 32.7786C46.4848 32.7898 46.9405 32.743 47.3866 32.7923C47.7908 32.8374 48.1839 32.9778 48.7062 33.107C48.439 33.2023 48.3082 33.2491 48.0679 33.3349C48.2771 33.4227 48.4092 33.4786 48.5645 33.544C48.5708 33.6791 48.5774 33.8244 48.5844 33.9827C48.3848 34.1086 48.198 34.2821 47.9785 34.3492C47.7722 34.4122 47.5299 34.3807 47.3062 34.3588C46.851 34.3144 46.3606 34.5124 45.9468 34.1703C45.5289 34.5563 45.0227 34.3165 44.5588 34.3542C44.0734 34.3931 43.5817 34.3625 43.0188 34.3625C42.9177 34.4996 42.7852 34.6798 42.6386 34.879C42.3511 34.7937 42.1196 34.7245 41.7514 34.6147C41.7277 34.6301 41.577 34.8069 41.437 34.7986C41.0091 34.7734 40.5804 34.9146 40.1455 34.6545C39.7023 34.3898 39.1821 34.7034 38.6651 34.6251C37.7899 34.4921 36.8799 34.5886 36.0047 34.5886C35.9393 34.7738 35.8933 34.9047 35.8386 35.0596C35.7198 35.0273 35.5926 35.0298 35.5255 34.9676C35.2558 34.717 35.0218 34.3915 34.567 34.698C34.7269 34.7738 34.874 34.8438 35.0591 34.932C34.4771 35.1967 33.9892 34.9805 33.4682 34.746C33.4537 34.5862 33.4379 34.4081 33.4222 34.2304C33.2892 34.097 33.1563 33.964 33.0055 33.8137C33.0664 33.7395 33.1281 33.6637 33.2254 33.5449C32.9968 33.3995 32.7682 33.2537 32.4861 33.0743C32.6037 32.9012 32.7218 32.7272 32.8324 32.5644C33.0042 32.6618 33.1509 32.7446 33.4185 32.8958Z" fill="black"/>
<path fill-rule="evenodd" clip-rule="evenodd" d="M14.8764 36.096C14.7467 36.1453 14.6167 36.1946 14.4228 36.2683C14.5578 36.415 14.6664 36.5322 14.7745 36.6498C14.8884 36.5359 14.9414 36.4829 15.0205 36.4038C15.1444 36.6424 15.2636 36.8723 15.3742 37.0847C15.2674 37.2939 15.1725 37.4795 15.0661 37.6886C14.7674 37.7777 14.4319 37.9633 14.0977 37.9608C13.22 37.9546 12.3994 38.1231 11.5677 38.4036C11.1113 38.5576 10.5517 38.3555 10.0903 38.6554C9.19933 38.51 8.3614 38.9482 7.47501 38.8902C7.25797 38.8762 6.98832 39.0779 6.82305 39.0033C6.5124 38.8625 6.34589 39.1972 6.05927 39.1243C5.83436 39.0667 5.52909 39.0062 5.3514 39.2949C4.40536 39.2601 3.55086 39.7029 2.62347 39.8123C1.83731 39.9046 1.07891 40.2352 0.406249 40.4319C0.190036 40.7347 0.031397 40.9575 -0.142153 41.2007C-0.289195 41.1133 -0.412627 41.0818 -0.461502 41.0039C-0.664047 40.68 -0.843396 40.3428 -1.03476 40.0044H-1.57529C-1.53718 39.7273 -1.50198 39.4697 -1.4531 39.1123C-1.44606 39.1209 -1.53387 39.0149 -1.59766 38.9379C-1.36736 38.1927 -0.700496 38.0979 -0.197242 38.0125C0.681279 37.863 1.51838 37.5569 2.42714 37.484C3.41583 37.4037 4.40826 37.1866 5.3953 37.0247C5.97187 36.9302 6.54098 36.8462 7.11465 36.8636C7.43566 36.8735 7.65684 36.6854 7.9269 36.6362C8.25453 36.5761 8.60163 36.6225 8.94004 36.6217C9.23992 36.6204 9.72453 36.7265 9.80406 36.5927C10.017 36.2352 10.3384 36.772 10.49 36.4328C10.5119 36.3835 10.695 36.4059 10.8035 36.3959C11.3403 36.3475 11.866 36.4431 12.4168 36.2025C12.8849 35.9979 13.4859 36.2791 14.014 35.9652C14.2294 35.8372 14.5844 35.944 14.876 35.944C14.8764 35.9946 14.8764 36.0451 14.8764 36.096Z" fill="black"/>
<path fill-rule="evenodd" clip-rule="evenodd" d="M67.243 61.2228H66.4689V60.4802C66.3293 60.3485 66.2316 60.2288 66.1077 60.1476C66.0253 60.0933 65.9064 60.095 65.7776 60.0656V58.6627C66.1491 57.7775 66.946 57.225 67.7918 56.7321C68.8795 56.0983 70.0393 55.5827 71.2359 55.2426C72.1116 54.9941 73.0162 54.7725 73.9444 54.6499C74.7086 54.5492 75.486 54.5931 76.2221 54.4382C76.8716 54.3011 77.4895 54.2257 78.1543 54.2618V54.705H76.8413C76.8397 54.758 76.8384 54.811 76.8368 54.864H78.3279C78.2575 55.1767 78.2575 55.1767 78.1717 55.2699C78.3279 55.3445 78.482 55.4178 78.7164 55.5301C78.4836 55.8063 78.2769 56.0515 78.1697 56.1787C77.3185 56.4401 76.5555 56.4082 75.8435 56.6819C75.3755 56.8625 74.8047 56.5345 74.3756 56.9553C72.7445 57.1583 71.3134 57.9096 69.8649 58.608C69.4868 58.7898 69.1463 59.0512 68.7698 59.2372C68.0437 59.595 67.5843 60.1277 67.4986 60.9565C67.4895 61.0439 67.3482 61.1172 67.243 61.2228Z" fill="black"/>
<path fill-rule="evenodd" clip-rule="evenodd" d="M85.5998 93.3299C85.6172 93.4919 85.6246 93.5635 85.6404 93.7155C85.0547 93.8845 84.4185 93.6998 83.8278 93.9607C84.107 93.9765 84.3862 93.9984 84.6657 94.0059C84.9619 94.0134 85.258 94.0076 85.524 94.0076C85.6544 94.1455 85.7526 94.249 85.8706 94.3741C85.7162 94.4292 85.5853 94.4764 85.3471 94.5618C85.5554 94.65 85.688 94.7059 85.9034 94.7974C85.8259 95.0468 85.746 95.3044 85.664 95.5678C84.7196 95.6842 83.8605 95.7899 82.9538 95.9017C82.9443 95.9485 82.9232 96.0516 82.8838 96.2447C82.4282 96.1788 81.9531 96.0806 81.4735 96.0487C80.9487 96.0139 80.4202 96.0409 79.8813 96.0409C79.7264 96.1879 79.5657 96.3416 79.4058 96.494C79.0135 96.5205 78.6606 96.3084 78.2224 96.4555C77.9225 96.5561 77.5046 96.3051 77.0676 96.3905C77.2056 96.4621 77.3439 96.5346 77.6181 96.6779H76.0843C75.8528 96.8933 75.6701 97.0639 75.4328 97.2847C75.1942 96.9944 75.0091 96.7682 74.8492 96.5739C74.7498 96.2948 74.6557 96.0318 74.5609 95.7671C74.6272 95.6598 74.6943 95.5509 74.7933 95.3906H74.0092C73.7221 94.9909 73.916 94.737 74.1869 94.4951C74.4582 94.4644 74.7357 94.4338 75.0132 94.4031L75.0115 94.2743C74.7299 94.2519 74.4482 94.2292 74.128 94.2031C74.128 94.0788 74.0846 93.938 74.1351 93.8812C74.4909 93.4823 74.9349 93.3196 75.4829 93.322C78.8313 93.3378 82.1797 93.3299 85.5998 93.3299Z" fill="black"/>
<path fill-rule="evenodd" clip-rule="evenodd" d="M34.3025 51.0219C34.365 50.5737 34.4143 50.2237 34.4868 49.7068C34.532 49.6728 34.7328 49.5204 35.0572 49.2743C36.6995 48.8365 38.5601 49.1178 40.4041 49.0519C40.7972 49.0382 41.1675 49.0821 41.5639 49.24C41.9532 49.3949 42.4627 49.2159 42.9005 49.2913C43.2666 49.3551 43.5963 49.6028 43.9588 49.7179C44.3274 49.8348 44.7437 49.8277 45.0879 49.9868C45.4607 50.1591 45.7742 50.4602 46.1238 50.712C46.0153 50.8206 45.9623 50.8736 45.9333 50.9026C46.1375 51.3101 46.3359 51.7049 46.538 52.1083C46.3591 52.2823 46.1718 52.4649 45.9254 52.7056C45.034 52.4459 44.0379 52.3647 43.1714 51.7732C42.7845 51.9153 42.3782 52.2148 41.9105 51.7898C41.8207 51.7086 41.5063 51.8295 41.3191 51.9116C41.0101 52.0478 40.7528 52.0553 40.5491 51.7185C40.0388 51.9476 39.591 52.0391 39.0045 51.8457C38.3998 51.6465 37.6782 51.8018 36.9873 51.8018C36.591 52.0897 36.1602 52.4032 35.7029 52.7358C35.3446 52.4049 34.9375 52.2119 35.0033 51.6444C35.0232 51.4775 34.8277 51.2695 34.6964 51.1088C34.645 51.0463 34.4992 51.0612 34.3025 51.0219Z" fill="black"/>
<path fill-rule="evenodd" clip-rule="evenodd" d="M68.4415 43.0469C68.3521 43.177 68.2725 43.2922 68.1379 43.4881C68.35 43.5755 68.497 43.6359 68.6652 43.7051V44.7025C68.425 44.8516 68.1843 45.0016 67.9317 45.159C67.3634 44.9734 66.7822 44.7845 66.1096 44.5654C65.9046 44.6342 65.6183 44.9941 65.2447 44.6072C65.1652 44.5248 64.973 44.5377 64.8318 44.5314C62.4621 44.432 60.0925 44.3364 57.6417 44.2365C57.2556 43.633 57.0916 42.793 56.1472 42.1531C56.8435 42.0773 57.2167 42.0371 57.5899 41.9965C57.5932 41.9597 57.5965 41.9228 57.6002 41.8855C57.3086 41.8433 57.0166 41.8006 56.6364 41.7451C56.7747 41.5127 56.8787 41.3375 57.0112 41.1151C57.3906 41.2435 57.8123 40.954 58.1602 41.3313C58.2149 41.391 58.3702 41.3616 58.4792 41.3657C59.39 41.3993 60.2967 41.4473 61.2071 41.5364C62.183 41.6312 63.1845 41.6942 64.1434 41.8545C65.6096 42.0993 67.1235 42.2823 68.4415 43.0469Z" fill="black"/>
<path fill-rule="evenodd" clip-rule="evenodd" d="M30.1703 41.7817C30.0361 41.9577 29.901 42.135 29.7996 42.2675H28.1651C27.3446 41.7688 27.4423 40.7565 26.7104 40.0238H27.746C27.7538 39.9716 27.7617 39.9194 27.7691 39.8668C27.5915 39.8316 27.4138 39.7964 27.1536 39.745C27.1408 39.5872 27.1247 39.3843 27.1023 39.1072C28.3871 39.1072 29.6372 38.9717 30.8388 39.1544C31.6436 39.277 32.4405 39.2331 33.2279 39.3478C34.0604 39.4692 34.8768 39.7048 35.699 39.897C36.4044 40.0623 37.1052 40.2433 37.8098 40.5888C37.705 40.7685 37.635 40.8886 37.5625 41.0129C37.7572 41.1463 37.9763 41.2966 38.1991 41.449C38.1076 41.5514 38.0368 41.6313 37.9771 41.6976C38.062 41.8135 38.1441 41.927 38.2725 42.1027C38.0082 42.3015 37.7733 42.4779 37.4101 42.7517C37.1483 42.6701 36.7163 42.5351 36.2843 42.4005C35.332 42.1147 34.2456 42.5877 33.3861 41.8881C33.1712 41.9436 32.9694 42.0525 32.7835 42.0306C32.5043 41.997 32.2413 41.577 31.9604 42.0318C31.714 41.6404 31.4924 41.9838 31.2381 42.0144C30.9109 42.0534 30.5575 41.8765 30.1703 41.7817Z" fill="black"/>
<path fill-rule="evenodd" clip-rule="evenodd" d="M7.24614 67.4884C7.0962 67.5414 6.96531 67.5878 6.752 67.6636C7.59076 67.8686 7.46608 68.6009 7.7233 69.1092C7.50667 69.4393 7.3149 69.7317 7.09206 70.0701C6.6965 70.013 6.40863 69.764 6.21022 69.395C6.12863 69.467 6.04661 69.5403 5.99691 69.5851C5.58892 69.4877 5.21159 69.3974 4.74644 69.2869C4.66608 69.1498 4.54016 68.9344 4.37366 68.6502C3.87247 68.8163 3.34147 68.9812 2.81833 69.1692C2.32833 69.3448 1.84744 69.5449 1.362 69.7346V69.9583C1.51443 70.0316 1.66685 70.1049 1.84579 70.1906C1.79608 70.3054 1.73768 70.4876 1.71573 70.4831C1.30277 70.4015 1.43863 70.8422 1.24519 70.964C1.19383 70.9101 1.14206 70.8563 1.06295 70.7734C0.932059 70.8401 0.793715 70.9114 0.577502 71.0219C0.505017 70.8463 0.44413 70.6989 0.370816 70.5208C0.289218 70.5858 0.214662 70.645 0.0539522 70.7726C-0.0819057 70.445 -0.156876 70.0995 -0.34948 69.8435C-0.552438 69.5739 -0.81877 69.3672 -0.649361 68.9903C-0.940131 68.9385 -1.14723 68.9016 -1.36054 68.864C-1.09877 68.1072 -1.09877 68.1072 -1.39575 67.4445C-0.960427 67.1906 -0.528 66.754 -0.0632668 66.7163C0.48265 66.672 1.01076 66.2044 1.66147 66.5635C1.54342 66.7511 1.45022 66.8986 1.33756 67.0775H0.362118C0.207621 67.2718 0.0771475 67.4362 -0.0466987 67.5919C0.047325 67.6909 0.0908161 67.7369 0.134307 67.7825C0.187325 67.7295 0.236615 67.635 0.294603 67.6292C1.32265 67.529 2.35153 67.4321 3.38164 67.3583C3.49886 67.3496 3.62561 67.4818 3.72502 67.5364C3.90809 67.442 4.09531 67.3459 4.28874 67.2465C3.5875 66.7722 2.85105 66.7793 2.06407 67.073C2.06407 66.8857 2.06407 66.7085 2.06407 66.5312C2.09017 66.5047 2.11667 66.455 2.1436 66.4545C3.04573 66.4479 4.00667 66.252 4.83425 66.4997C5.63407 66.7395 6.61531 66.7064 7.24614 67.4884Z" fill="black"/>
<path fill-rule="evenodd" clip-rule="evenodd" d="M12.612 100.617C12.4567 100.527 12.1514 100.455 12.0603 100.276C11.7649 99.6899 11.5189 99.0735 11.3172 98.4493C11.2505 98.2443 11.3768 97.9767 11.4294 97.647C11.4477 97.6677 11.3781 97.5894 11.282 97.4809C11.5496 97.3078 11.8155 97.1359 12.0777 96.9661H20.027C20.1397 97.0874 20.2354 97.1893 20.3766 97.3409C20.1148 97.3803 19.9077 97.4113 19.5954 97.4581C19.9794 97.6168 20.2759 97.7398 20.7937 97.9535C20.3327 98.0463 20.1107 98.091 19.8883 98.1362C19.8874 98.1706 19.8866 98.2049 19.8862 98.2389C20.0858 98.2704 20.2855 98.3019 20.4868 98.3338C20.6848 98.6958 20.5423 98.9613 20.2428 99.1841C18.2882 99.1617 16.3489 99.5888 14.3856 99.4306C14.311 99.4243 14.2357 99.4297 14.1607 99.4297C13.6757 99.8017 13.1906 100.174 12.612 100.617Z" fill="black"/>
<path fill-rule="evenodd" clip-rule="evenodd" d="M77.7513 30.645C78.3225 30.5606 78.8091 30.4429 79.2983 30.4292C79.7498 30.416 80.1735 30.2433 80.6797 30.481C81.1038 30.6798 81.6949 30.5216 82.2242 30.4127C81.8519 30.2743 81.4795 30.136 81.0529 29.9774C81.5056 29.7425 81.8328 29.8862 82.213 30.0465C82.5138 30.1733 82.9545 29.9633 83.1247 30.4761C82.9114 30.5067 82.7043 30.5365 82.4462 30.5734C82.5465 30.691 82.5962 30.7892 82.6757 30.8356C82.9172 30.976 83.1703 31.0961 83.4209 31.2253C83.5211 31.1433 83.6048 31.075 83.6926 31.0033C83.9444 31.0849 84.0252 31.3335 84.0165 32.0231C83.0709 32.1138 82.6185 32.0007 81.5781 31.4001C81.4497 31.4755 81.3001 31.5637 81.1303 31.6636C80.9883 31.5857 80.8358 31.5024 80.6374 31.3939C80.5376 31.4689 80.4258 31.5534 80.3123 31.6387C80.0178 31.5737 79.7113 31.5058 79.4052 31.4382C79.201 31.8885 78.7839 31.0961 78.508 31.6068C78.4061 31.7957 77.931 31.7837 77.6117 31.8669C77.545 31.8052 77.4638 31.729 77.3652 31.6375C77.3263 31.741 77.2894 31.8384 77.2124 32.0409C76.9519 32.1382 76.6077 32.2671 76.1487 32.4381V31.4631C75.8928 31.4353 75.7146 31.4159 75.4951 31.3923C75.6823 31.2713 75.8497 31.1632 75.9669 31.087C75.8078 30.7577 75.7378 30.6123 75.6256 30.3795C76.3326 30.2168 76.9949 30.0643 77.6767 29.9069C77.7496 29.984 77.8461 30.0871 77.9886 30.2391C77.7293 30.2785 77.5222 30.31 77.1768 30.363C77.453 30.4984 77.6167 30.5792 77.7513 30.645Z" fill="black"/>
<path fill-rule="evenodd" clip-rule="evenodd" d="M94.9265 61.855C94.7405 61.9429 94.6018 62.0083 94.2895 62.1558C94.796 62.1843 95.1361 62.2038 95.5404 62.2266C95.4492 62.0037 95.3796 61.8331 95.2989 61.6368C95.6998 61.544 96.0589 61.4607 96.5063 61.3572C96.4454 61.539 96.3944 61.6902 96.3178 61.9172C96.3688 61.9371 96.4715 61.9764 96.6115 62.0303C96.6831 62.1698 96.778 62.3558 96.8724 62.5397C96.3476 62.77 95.7885 63.0148 95.3618 63.2016C94.4829 63.4253 93.7328 63.6162 92.9545 63.8138C92.9073 63.6721 92.8638 63.5425 92.8203 63.4133C92.5362 63.2849 92.2524 63.1565 91.8838 62.9891C92.3295 62.8243 92.7064 62.6847 93.2283 62.4913C92.8054 62.4561 92.525 62.4324 92.2441 62.4088C92.2114 62.3695 92.1783 62.3301 92.1456 62.2912C92.2889 62.2634 92.4322 62.2361 92.5751 62.2088C93.2589 62.135 94.0157 61.5253 94.9265 61.855Z" fill="black"/>
</svg>
