<svg width="21" height="12" viewBox="0 0 21 12" fill="none" xmlns="http://www.w3.org/2000/svg">
<path d="M9.39154 10.0989C9.44487 10.0539 9.49904 10.0072 9.54904 9.95805C6.76487 12.6897 2.22487 11.4147 1.16071 7.56221V7.55638C-0.266793 2.31471 5.75237 -1.66695 9.54737 1.99971C9.62654 2.08388 14.869 7.67471 14.5357 7.31888H14.5507C15.3332 8.12555 16.4649 8.03721 17.1382 7.33221C17.8624 6.57555 17.8882 5.34055 17.1774 4.57138C16.0549 3.27888 13.8507 4.24471 14.0615 6.16055L12.7999 4.87555L11.3365 3.47638C11.6382 2.87721 12.034 2.35305 12.5299 1.89971C12.4765 1.94555 12.4224 1.99305 12.3724 2.04055C15.1674 -0.701121 19.704 0.603879 20.7607 4.43971V4.44471C22.1915 9.68555 16.1657 13.6672 12.374 10.0005C12.2965 9.91721 7.05737 4.29138 7.38904 4.64805L7.38571 4.63555C7.37237 4.63555 7.37237 4.62305 7.37237 4.62305C6.55071 3.77555 5.43654 3.90305 4.78487 4.59721C4.05987 5.35388 4.03487 6.58888 4.74737 7.34638C5.82071 8.60888 8.07237 7.67305 7.86071 5.71888C7.94237 5.80305 10.7682 8.70388 10.5882 8.51971C10.1307 9.43221 9.61904 9.85138 9.39154 10.0989Z" fill="#3734A9"/>
</svg>
